<svg width="1280" height="3314" viewBox="0 0 1280 3314" fill="none" xmlns="http://www.w3.org/2000/svg">
<g filter="url(#filter0_f_344_593)">
<path fill-rule="evenodd" clip-rule="evenodd" d="M661.371 471.729L659.678 471.499L657.969 471.309L656.243 471.153L654.501 471.025L652.742 470.92L650.968 470.83L649.18 470.751L647.379 470.676L645.566 470.599L643.744 470.514L641.914 470.416L640.078 470.299L638.24 470.158L636.4 469.989L634.561 469.787L632.727 469.549L630.898 469.271L629.077 468.951L627.267 468.586L625.47 468.175L623.687 467.716L621.919 467.21L620.169 466.656L618.437 466.054L616.725 465.406L615.032 464.712L613.361 463.972L611.712 463.188L610.086 462.359L608.484 461.488L606.906 460.576L605.352 459.624L603.821 458.637L602.312 457.616L600.825 456.564L599.358 455.484L597.91 454.38L596.479 453.254L595.064 452.109L593.661 450.949L592.269 449.777L590.886 448.594L589.509 447.405L588.137 446.212L586.765 445.016L585.393 443.821L584.017 442.628L582.635 441.439L581.244 440.255L579.843 439.078L578.429 437.909L577 436.749L575.553 435.598L574.088 434.457L572.602 433.325L571.093 432.203L569.561 431.09L568.005 429.986L566.423 428.889L564.814 427.8L563.179 426.716L561.517 425.636L559.829 424.56L558.114 423.484L556.373 422.407L554.609 421.328L552.821 420.243L551.011 419.152L549.181 418.051L547.335 416.938L545.473 415.811L543.599 414.667L541.717 413.504L539.829 412.319L537.94 411.111L536.054 409.876L534.175 408.612L532.307 407.317L530.456 405.989L528.627 404.626L526.825 403.226L525.056 401.787L523.326 400.308L521.64 398.787L520.005 397.223L518.426 395.615L516.911 393.963L515.464 392.266L514.093 390.524L512.803 388.737L511.601 386.905L510.493 385.029L509.484 383.11L508.579 381.15L507.785 379.149L507.105 377.11L506.546 375.035L506.11 372.926L505.802 370.786L505.625 368.618L505.582 366.425L505.674 364.21L505.904 361.977L506.273 359.729L506.78 357.472L507.425 355.208L508.207 352.942L509.124 350.677L510.174 348.419L511.354 346.171L512.658 343.937L514.082 341.722L515.621 339.529L517.269 337.363L519.019 335.225L520.862 333.121L522.792 331.053L524.801 329.023L526.878 327.034L529.016 325.089L531.206 323.188L533.439 321.334L535.705 319.527L537.996 317.768L540.304 316.058L542.622 314.395L544.943 312.781L547.259 311.214L549.563 309.693L551.849 308.219L554.108 306.788L556.332 305.4L558.515 304.052L560.648 302.743L562.723 301.468L564.733 300.227L566.67 299.014L568.528 297.826L570.299 296.661L571.977 295.513L573.556 294.379L575.031 293.254L576.396 292.134L577.647 291.013L578.781 289.888L579.793 288.753L580.682 287.603L581.447 286.435L582.085 285.242L582.597 284.021L582.983 282.768L583.245 281.477L583.385 280.146L583.405 278.77L583.31 277.346L583.103 275.872L582.79 274.344L582.377 272.761L581.869 271.12L581.274 269.421L580.599 267.662L579.852 265.844L579.042 263.967L578.177 262.031L577.267 260.037L576.32 257.988L575.347 255.886L574.356 253.733L573.359 251.533L572.364 249.289L571.382 247.006L570.421 244.688L569.492 242.341L568.603 239.969L567.763 237.577L566.981 235.173L566.264 232.762L565.62 230.35L565.056 227.943L564.579 225.549L564.194 223.173L563.906 220.823L563.72 218.504L563.64 216.222L563.668 213.985L563.808 211.797L564.061 209.664L564.429 207.591L564.91 205.584L565.506 203.647L566.214 201.783L567.034 199.997L567.963 198.291L568.998 196.669L570.135 195.132L571.371 193.681L572.702 192.318L574.122 191.043L575.626 189.855L577.209 188.755L578.865 187.74L580.588 186.809L582.372 185.96L584.211 185.19L586.098 184.497L588.028 183.875L589.994 183.322L591.99 182.834L594.011 182.405L596.051 182.032L598.104 181.71L600.166 181.435L602.232 181.2L604.298 181.002L606.359 180.836L608.412 180.698L610.455 180.583L612.483 180.487L614.496 180.406L616.491 180.338L618.466 180.278L620.421 180.224L622.355 180.174L624.267 180.126L626.157 180.078L628.026 180.028L629.873 179.977L631.698 179.921L633.502 179.86L635.285 179.791L637.047 179.713L638.787 179.623L640.506 179.52L642.203 179.4L643.88 179.261L645.535 179.1L647.168 178.913L648.781 178.697L650.373 178.449L651.944 178.165L653.495 177.842L655.028 177.477L656.541 177.065L658.037 176.604L659.517 176.09L660.981 175.52L662.432 174.891L663.87 174.201L665.299 173.448L666.719 172.63L668.133 171.744L669.543 170.791L670.951 169.768L672.361 168.677L673.774 167.517L675.194 166.289L676.622 164.995L678.062 163.635L679.517 162.213L680.989 160.731L682.48 159.193L683.994 157.602L685.532 155.963L687.098 154.28L688.692 152.56L690.318 150.807L691.976 149.028L693.669 147.23L695.397 145.418L697.162 143.601L698.964 141.786L700.804 139.981L702.681 138.193L704.597 136.43L706.549 134.7L708.537 133.011L710.561 131.372L712.618 129.791L714.707 128.274L716.825 126.831L718.97 125.468L721.14 124.193L723.331 123.012L725.54 121.934L727.764 120.962L729.999 120.105L732.24 119.366L734.485 118.752L736.729 118.266L738.966 117.913L741.194 117.696L743.407 117.617L745.601 117.68L747.771 117.886L749.914 118.236L752.023 118.731L754.096 119.37L756.128 120.153L758.114 121.079L760.052 122.146L761.936 123.351L763.764 124.693L765.532 126.166L767.237 127.769L768.878 129.495L770.45 131.341L771.952 133.3L773.382 135.368L774.74 137.538L776.023 139.804L777.231 142.16L778.363 144.598L779.421 147.112L780.403 149.693L781.311 152.336L782.146 155.032L782.909 157.773L783.603 160.552L784.229 163.362L784.789 166.194L785.287 169.042L785.725 171.898L786.108 174.755L786.438 177.605L786.721 180.44L786.96 183.254L787.162 186.037L787.332 188.783L787.478 191.481L787.605 194.126L787.722 196.707L787.836 199.217L787.956 201.65L788.089 203.998L788.244 206.255L788.429 208.415L788.653 210.473L788.923 212.425L789.248 214.267L789.636 215.997L790.093 217.613L790.627 219.114L791.244 220.499L791.951 221.768L792.753 222.924L793.655 223.967L794.661 224.902L795.776 225.73L797.002 226.457L798.342 227.086L799.798 227.624L801.37 228.075L803.059 228.447L804.864 228.746L806.784 228.979L808.818 229.153L810.962 229.276L813.213 229.356L815.567 229.401L818.02 229.419L820.565 229.418L823.198 229.406L825.91 229.392L828.696 229.383L831.547 229.388L834.456 229.414L837.413 229.467L840.41 229.557L843.437 229.689L846.485 229.869L849.544 230.104L852.604 230.4L855.654 230.76L858.685 231.191L861.686 231.697L864.647 232.28L867.557 232.945L870.407 233.693L873.187 234.527L875.887 235.448L878.498 236.458L881.01 237.556L883.416 238.743L885.707 240.018L887.875 241.38L889.913 242.827L891.815 244.358L893.574 245.969L895.185 247.658L896.644 249.421L897.945 251.255L899.087 253.155L900.065 255.118L900.878 257.139L901.525 259.212L902.005 261.333L902.318 263.497L902.465 265.698L902.447 267.93L902.267 270.19L901.927 272.47L901.431 274.766L900.783 277.072L899.987 279.383L899.05 281.694L897.975 284L896.77 286.296L895.441 288.577L893.994 290.84L892.438 293.08L890.779 295.294L889.024 297.477L887.182 299.627L885.26 301.741L883.266 303.817L881.207 305.851L879.091 307.843L876.926 309.79L874.719 311.692L872.477 313.546L870.206 315.354L867.913 317.113L865.606 318.823L863.291 320.486L860.978 322.101L858.675 323.668L856.391 325.19L854.133 326.667L851.909 328.1L849.726 329.493L847.59 330.847L845.507 332.163L843.482 333.446L841.52 334.697L839.624 335.919L837.798 337.115L836.044 338.288L834.364 339.44L832.76 340.574L831.231 341.693L829.778 342.8L828.401 343.897L827.099 344.986L825.869 346.07L824.71 347.151L823.62 348.231L822.596 349.311L821.634 350.393L820.731 351.479L819.885 352.568L819.09 353.663L818.342 354.764L817.639 355.872L816.975 356.986L816.346 358.108L815.749 359.236L815.178 360.371L814.631 361.512L814.102 362.659L813.588 363.81L813.086 364.967L812.591 366.126L812.101 367.289L811.612 368.453L811.122 369.617L810.629 370.782L810.129 371.945L809.621 373.106L809.104 374.265L808.575 375.419L808.034 376.569L807.481 377.714L806.914 378.853L806.334 379.987L805.74 381.115L805.133 382.237L804.514 383.353L803.884 384.465L803.243 385.571L802.594 386.674L801.937 387.774L801.274 388.873L800.607 389.972L799.939 391.073L799.27 392.178L798.604 393.289L797.943 394.408L797.288 395.539L796.642 396.683L796.007 397.843L795.385 399.023L794.778 400.225L794.188 401.454L793.617 402.712L793.066 404.003L792.537 405.329L792.03 406.696L791.547 408.104L791.089 409.559L790.654 411.063L790.245 412.619L789.86 414.23L789.499 415.899L789.161 417.627L788.844 419.417L788.548 421.27L788.269 423.188L788.007 425.171L787.758 427.22L787.52 429.334L787.289 431.514L787.062 433.757L786.835 436.062L786.604 438.427L786.365 440.849L786.114 443.325L785.846 445.849L785.556 448.419L785.241 451.028L784.895 453.67L784.514 456.34L784.093 459.03L783.628 461.735L783.116 464.448L782.554 467.163L781.938 469.872L781.265 472.569L780.533 475.246L779.738 477.894L778.878 480.507L777.952 483.075L776.957 485.59L775.892 488.045L774.756 490.43L773.549 492.739L772.27 494.962L770.919 497.094L769.498 499.125L768.007 501.05L766.448 502.861L764.822 504.554L763.131 506.122L761.38 507.56L759.569 508.865L757.704 510.032L755.786 511.06L753.82 511.944L751.811 512.685L749.761 513.28L747.677 513.73L745.561 514.036L743.419 514.199L741.255 514.221L739.075 514.104L736.882 513.853L734.681 513.471L732.477 512.964L730.273 512.336L728.075 511.594L725.885 510.744L723.708 509.793L721.547 508.749L719.406 507.619L717.286 506.412L715.19 505.136L713.122 503.8L711.081 502.413L709.071 500.983L707.091 499.52L705.143 498.032L703.228 496.528L701.344 495.017L699.492 493.508L697.67 492.008L695.879 490.526L694.117 489.068L692.381 487.643L690.67 486.256L688.983 484.914L687.317 483.621L685.668 482.384L684.036 481.206L682.417 480.091L680.808 479.042L679.207 478.061L677.61 477.149L676.016 476.308L674.421 475.538L672.823 474.838L671.219 474.207L669.607 473.643L667.986 473.144L666.353 472.707L664.707 472.328L663.047 472.004L661.371 471.729Z" fill="#4922D9" fill-opacity="0.5"/>
</g>
<g filter="url(#filter1_f_344_593)">
<path fill-rule="evenodd" clip-rule="evenodd" d="M1062.04 72.8549L1060.6 72.6157L1059.1 72.5179L1057.56 72.5572L1055.96 72.7274L1054.29 73.0215L1052.56 73.4306L1050.76 73.945L1048.89 74.5534L1046.96 75.244L1044.95 76.0037L1042.87 76.819L1040.73 77.6756L1038.52 78.5591L1036.25 79.4548L1033.93 80.3482L1031.56 81.2251L1029.15 82.072L1026.71 82.8764L1024.23 83.626L1021.74 84.3086L1019.23 84.9122L1016.72 85.4261L1014.22 85.8399L1011.74 86.1437L1009.29 86.3274L1006.87 86.3815L1004.51 86.2976L1002.22 86.0681L1000 85.687L997.871 85.1496L995.841 84.4527L993.921 83.595L992.121 82.5765L990.449 81.399L988.912 80.0657L987.516 78.5815L986.267 76.9524L985.167 75.1858L984.219 73.2904L983.424 71.2757L982.78 69.1521L982.285 66.931L981.937 64.624L981.728 62.2435L981.654 59.8018L981.707 57.3115L981.878 54.7853L982.156 52.2356L982.533 49.6743L982.996 47.1131L983.532 44.5632L984.13 42.035L984.776 39.5381L985.456 37.0814L986.157 34.673L986.866 32.3198L987.568 30.028L988.251 27.8024L988.902 25.6471L989.508 23.5651L990.058 21.5582L990.54 19.6274L990.946 17.7726L991.264 15.9927L991.488 14.2859L991.609 12.6495L991.623 11.0799L991.524 9.57292L991.309 8.12382L990.975 6.72726L990.522 5.37745L989.949 4.0683L989.257 2.79341L988.45 1.54624L987.531 0.320186L986.504 -0.891442L985.375 -2.09513L984.151 -3.29726L982.839 -4.50398L981.448 -5.7211L979.986 -6.95409L978.461 -8.20797L976.885 -9.48734L975.266 -10.7963L973.615 -12.1383L971.942 -13.5165L970.256 -14.9333L968.567 -16.3906L966.885 -17.8899L965.218 -19.4319L963.574 -21.0171L961.962 -22.6454L960.388 -24.3164L958.859 -26.0292L957.381 -27.7827L955.959 -29.5753L954.597 -31.4055L953.299 -33.2714L952.069 -35.1708L950.907 -37.1019L949.817 -39.0622L948.799 -41.0498L947.851 -43.0625L946.973 -45.0984L946.163 -47.1557L945.419 -49.2328L944.739 -51.3282L944.12 -53.4405L943.559 -55.5686L943.056 -57.7114L942.607 -59.8679L942.21 -62.0373L941.863 -64.2188L941.565 -66.4116L941.315 -68.615L941.111 -70.8283L940.952 -73.0506L940.84 -75.2813L940.772 -77.5193L940.75 -79.7638L940.773 -82.0136L940.843 -84.2677L940.96 -86.5245L941.126 -88.7827L941.342 -91.0406L941.609 -93.2964L941.93 -95.548L942.305 -97.7932L942.737 -100.03L943.228 -102.255L943.78 -104.466L944.395 -106.66L945.075 -108.834L945.822 -110.984L946.639 -113.107L947.526 -115.199L948.487 -117.257L949.521 -119.277L950.632 -121.254L951.819 -123.184L953.085 -125.064L954.429 -126.889L955.853 -128.655L957.356 -130.358L958.939 -131.993L960.6 -133.557L962.34 -135.045L964.158 -136.455L966.051 -137.781L968.018 -139.021L970.058 -140.172L972.167 -141.23L974.344 -142.192L976.584 -143.057L978.886 -143.821L981.244 -144.484L983.656 -145.043L986.118 -145.497L988.625 -145.846L991.172 -146.09L993.755 -146.228L996.369 -146.26L999.01 -146.188L1001.67 -146.013L1004.35 -145.736L1007.04 -145.359L1009.73 -144.886L1012.43 -144.318L1015.11 -143.661L1017.79 -142.919L1020.45 -142.096L1023.09 -141.199L1025.71 -140.235L1028.28 -139.211L1030.82 -138.138L1033.32 -137.026L1035.76 -135.885L1038.15 -134.725L1040.48 -133.554L1042.75 -132.381L1044.95 -131.213L1047.1 -130.059L1049.18 -128.923L1051.2 -127.814L1053.15 -126.735L1055.04 -125.694L1056.87 -124.693L1058.65 -123.738L1060.36 -122.833L1062.02 -121.98L1063.63 -121.184L1065.19 -120.446L1066.7 -119.769L1068.17 -119.154L1069.59 -118.603L1070.98 -118.116L1072.34 -117.694L1073.67 -117.336L1074.97 -117.043L1076.24 -116.811L1077.5 -116.642L1078.74 -116.531L1079.97 -116.477L1081.18 -116.478L1082.39 -116.531L1083.6 -116.632L1084.8 -116.778L1086 -116.966L1087.21 -117.193L1088.42 -117.454L1089.64 -117.747L1090.87 -118.067L1092.1 -118.413L1093.35 -118.78L1094.61 -119.167L1095.89 -119.57L1097.18 -119.987L1098.48 -120.418L1099.81 -120.86L1101.15 -121.313L1102.51 -121.776L1103.88 -122.25L1105.28 -122.735L1106.71 -123.232L1108.15 -123.742L1109.62 -124.266L1111.12 -124.807L1112.64 -125.367L1114.2 -125.946L1115.79 -126.549L1117.41 -127.176L1119.07 -127.83L1120.78 -128.512L1122.52 -129.223L1124.31 -129.964L1126.16 -130.735L1128.05 -131.536L1129.99 -132.364L1131.99 -133.218L1134.04 -134.094L1136.15 -134.988L1138.31 -135.894L1140.53 -136.806L1142.81 -137.716L1145.13 -138.615L1147.5 -139.493L1149.91 -140.341L1152.36 -141.145L1154.83 -141.896L1157.33 -142.584L1159.85 -143.201L1162.37 -143.742L1164.9 -144.203L1167.44 -144.582L1169.98 -144.878L1172.51 -145.091L1175.04 -145.222L1177.56 -145.271L1180.07 -145.24L1182.57 -145.13L1185.06 -144.943L1187.53 -144.682L1190 -144.346L1192.45 -143.939L1194.88 -143.46L1197.29 -142.911L1199.68 -142.294L1202.06 -141.608L1204.41 -140.855L1206.73 -140.035L1209.02 -139.147L1211.29 -138.194L1213.52 -137.174L1215.71 -136.088L1217.87 -134.936L1219.98 -133.718L1222.05 -132.435L1224.07 -131.087L1226.04 -129.674L1227.95 -128.197L1229.8 -126.656L1231.59 -125.053L1233.32 -123.387L1234.97 -121.661L1236.55 -119.875L1238.05 -118.031L1239.47 -116.131L1240.81 -114.175L1242.06 -112.167L1243.23 -110.108L1244.3 -107.999L1245.27 -105.845L1246.15 -103.647L1246.92 -101.407L1247.59 -99.1298L1248.16 -96.8169L1248.62 -94.4716L1248.97 -92.0973L1249.21 -89.6973L1249.33 -87.275L1249.34 -84.8338L1249.24 -82.3776L1249.02 -79.9098L1248.68 -77.4344L1248.23 -74.9551L1247.66 -72.4758L1246.97 -70.0005L1246.17 -67.5331L1245.25 -65.0775L1244.22 -62.6378L1243.07 -60.2178L1241.82 -57.8216L1240.46 -55.453L1238.99 -53.1158L1237.42 -50.8137L1235.75 -48.5504L1233.99 -46.3293L1232.14 -44.1538L1230.21 -42.0272L1228.19 -39.9522L1226.11 -37.9317L1223.96 -35.9679L1221.76 -34.0631L1219.51 -32.2188L1217.23 -30.4362L1214.92 -28.7162L1212.59 -27.0588L1210.26 -25.464L1207.93 -23.9308L1205.62 -22.458L1203.33 -21.0437L1201.08 -19.686L1198.86 -18.3826L1196.69 -17.1308L1194.56 -15.9278L1192.5 -14.7707L1190.48 -13.6566L1188.53 -12.582L1186.65 -11.5438L1184.83 -10.5385L1183.08 -9.56266L1181.4 -8.61272L1179.79 -7.68513L1178.26 -6.77633L1176.81 -5.88278L1175.43 -5.00096L1174.12 -4.12741L1172.89 -3.25875L1171.74 -2.39174L1170.66 -1.52322L1169.65 -0.650248L1168.71 0.229966L1167.84 1.12005L1167.04 2.02233L1166.3 2.939L1165.62 3.87191L1164.99 4.82276L1164.42 5.79295L1163.89 6.78364L1163.42 7.79577L1162.98 8.83005L1162.58 9.88701L1162.21 10.967L1161.87 12.0702L1161.56 13.1967L1161.27 14.3466L1161 15.5199L1160.74 16.7164L1160.5 17.9364L1160.27 19.1799L1160.05 20.4473L1159.84 21.739L1159.63 23.0557L1159.43 24.3984L1159.23 25.7683L1159.04 27.1669L1158.86 28.596L1158.68 30.0578L1158.5 31.5546L1158.33 33.0893L1158.17 34.6646L1158.02 36.284L1157.88 37.9505L1157.74 39.6677L1157.61 41.439L1157.5 43.2677L1157.39 45.1571L1157.29 47.1101L1157.19 49.129L1157.1 51.216L1157.01 53.3723L1156.92 55.5985L1156.83 57.8942L1156.73 60.2583L1156.61 62.6883L1156.47 65.1807L1156.31 67.7307L1156.11 70.332L1155.88 72.9771L1155.6 75.6569L1155.26 78.3609L1154.87 81.0776L1154.4 83.7951L1153.87 86.5019L1153.25 89.1868L1152.56 91.8394L1151.78 94.4485L1150.91 97.0025L1149.95 99.4889L1148.9 101.895L1147.76 104.209L1146.52 106.417L1145.19 108.507L1143.76 110.468L1142.24 112.289L1140.64 113.958L1138.95 115.468L1137.18 116.808L1135.33 117.973L1133.41 118.956L1131.43 119.751L1129.39 120.356L1127.29 120.768L1125.16 120.987L1122.99 121.012L1120.79 120.847L1118.57 120.493L1116.35 119.956L1114.11 119.241L1111.88 118.356L1109.66 117.308L1107.46 116.107L1105.29 114.764L1103.14 113.289L1101.03 111.696L1098.97 109.995L1096.95 108.201L1094.97 106.329L1093.05 104.391L1091.18 102.404L1089.37 100.381L1087.62 98.3382L1085.92 96.2901L1084.27 94.2516L1082.68 92.2371L1081.14 90.261L1079.64 88.3369L1078.19 86.478L1076.78 84.6968L1075.4 83.0049L1074.05 81.4133L1072.72 79.9318L1071.41 78.5692L1070.1 77.3333L1068.8 76.2307L1067.49 75.2667L1066.16 74.4451L1064.82 73.7688L1063.45 73.2387L1062.04 72.8549Z" fill="#4922D9" fill-opacity="0.5"/>
</g>
<g filter="url(#filter2_f_344_593)">
<path fill-rule="evenodd" clip-rule="evenodd" d="M918.02 215.664L916.625 215.875L915.197 216.147L913.735 216.476L912.237 216.86L910.701 217.294L909.127 217.774L907.513 218.297L905.858 218.856L904.163 219.447L902.427 220.065L900.65 220.706L898.833 221.363L896.977 222.031L895.082 222.705L893.15 223.38L891.181 224.051L889.179 224.713L887.143 225.361L885.077 225.989L882.984 226.593L880.865 227.166L878.725 227.703L876.568 228.199L874.397 228.646L872.217 229.04L870.034 229.374L867.853 229.643L865.678 229.841L863.517 229.963L861.375 230.004L859.258 229.96L857.172 229.826L855.123 229.6L853.117 229.279L851.16 228.861L849.257 228.344L847.413 227.727L845.635 227.01L843.926 226.193L842.292 225.276L840.737 224.26L839.265 223.147L837.88 221.939L836.585 220.638L835.383 219.247L834.276 217.769L833.268 216.208L832.358 214.569L831.548 212.855L830.839 211.071L830.231 209.223L829.722 207.316L829.312 205.355L828.998 203.346L828.779 201.295L828.652 199.208L828.612 197.091L828.656 194.95L828.779 192.792L828.977 190.622L829.243 188.446L829.572 186.271L829.956 184.102L830.39 181.944L830.865 179.803L831.375 177.683L831.911 175.59L832.466 173.526L833.031 171.497L833.599 169.506L834.16 167.556L834.706 165.648L835.23 163.786L835.723 161.972L836.177 160.205L836.585 158.488L836.939 156.819L837.232 155.2L837.458 153.628L837.609 152.104L837.681 150.626L837.668 149.19L837.566 147.796L837.371 146.44L837.079 145.119L836.688 143.83L836.195 142.568L835.599 141.331L834.901 140.114L834.1 138.912L833.196 137.722L832.192 136.539L831.091 135.358L829.894 134.175L828.606 132.985L827.231 131.785L825.774 130.57L824.241 129.336L822.637 128.079L820.969 126.795L819.243 125.482L817.468 124.137L815.649 122.756L813.795 121.337L811.913 119.879L810.01 118.379L808.095 116.837L806.176 115.251L804.261 113.62L802.36 111.944L800.48 110.223L798.631 108.459L796.823 106.651L795.062 104.801L793.359 102.911L791.722 100.982L790.158 99.0181L788.676 97.0205L787.283 94.9929L785.987 92.9386L784.793 90.8612L783.709 88.7648L782.74 86.6532L781.891 84.531L781.167 82.4026L780.571 80.2726L780.109 78.1458L779.782 76.0269L779.592 73.9207L779.542 71.8322L779.633 69.766L779.864 67.7269L780.236 65.7195L780.748 63.7484L781.398 61.8176L782.184 59.9315L783.104 58.0937L784.153 56.3078L785.329 54.5772L786.626 52.9046L788.04 51.2927L789.564 49.7436L791.193 48.2591L792.921 46.8404L794.74 45.4885L796.644 44.2037L798.624 42.986L800.672 41.8348L802.782 40.749L804.943 39.7272L807.148 38.7673L809.389 37.8669L811.656 37.0228L813.942 36.2317L816.237 35.4898L818.533 34.7927L820.822 34.1357L823.096 33.5137L825.348 32.9215L827.569 32.3531L829.753 31.8027L831.892 31.2641L833.982 30.7309L836.016 30.1965L837.988 29.6544L839.895 29.0979L841.732 28.5204L843.495 27.9153L845.182 27.2761L846.79 26.5967L848.319 25.8709L849.766 25.0931L851.132 24.2579L852.418 23.3601L853.624 22.3953L854.753 21.3594L855.805 20.2488L856.786 19.0606L857.698 17.7924L858.545 16.4424L859.331 15.0096L860.063 13.4936L860.745 11.8947L861.384 10.2139L861.984 8.45288L862.554 6.614L863.099 4.70021L863.625 2.71511L864.14 0.662789L864.65 -1.45213L865.161 -3.62467L865.68 -5.84952L866.213 -8.12105L866.764 -10.4333L867.341 -12.7799L867.948 -15.1544L868.59 -17.5501L869.272 -19.96L869.997 -22.3774L870.77 -24.7953L871.594 -27.207L872.472 -29.6061L873.406 -31.986L874.397 -34.341L875.448 -36.6652L876.559 -38.9529L877.731 -41.1986L878.966 -43.3967L880.262 -45.5416L881.62 -47.628L883.04 -49.6508L884.521 -51.6049L886.062 -53.4858L887.662 -55.289L889.319 -57.0105L891.032 -58.6465L892.798 -60.1938L894.615 -61.6492L896.481 -63.0101L898.393 -64.2744L900.349 -65.44L902.345 -66.5055L904.379 -67.4697L906.447 -68.3318L908.546 -69.0914L910.673 -69.7483L912.825 -70.3027L914.998 -70.7552L917.189 -71.1065L919.395 -71.3577L921.612 -71.5101L923.838 -71.5652L926.069 -71.525L928.302 -71.3913L930.535 -71.1663L932.765 -70.8524L934.988 -70.4521L937.203 -69.9681L939.407 -69.403L941.597 -68.7598L943.771 -68.0414L945.928 -67.2508L948.065 -66.3912L950.18 -65.4657L952.272 -64.4773L954.34 -63.4295L956.381 -62.3252L958.395 -61.1678L960.38 -59.9603L962.336 -58.7058L964.261 -57.4076L966.156 -56.0685L968.018 -54.6916L969.849 -53.2797L971.647 -51.8355L973.411 -50.3618L975.143 -48.8611L976.841 -47.3358L978.506 -45.7882L980.137 -44.2205L981.735 -42.6346L983.3 -41.0325L984.832 -39.4158L986.33 -37.786L987.796 -36.1445L989.229 -34.4924L990.629 -32.8309L991.997 -31.1607L993.332 -29.4825L994.635 -27.797L995.906 -26.1045L997.145 -24.4053L998.351 -22.6997L999.524 -20.9877L1000.67 -19.2695L1001.77 -17.5451L1002.85 -15.8145L1003.89 -14.0778L1004.9 -12.3353L1005.88 -10.5872L1006.82 -8.83401L1007.73 -7.07623L1008.6 -5.31448L1009.45 -3.54932L1010.26 -1.78134L1011.03 -0.0112451L1011.78 1.76013L1012.49 3.53172L1013.17 5.30222L1013.82 7.07001L1014.44 8.83311L1015.03 10.5892L1015.59 12.3357L1016.13 14.0702L1016.65 15.7901L1017.15 17.4928L1017.64 19.1759L1018.1 20.8368L1018.56 22.4731L1019.01 24.0825L1019.45 25.6629L1019.89 27.2124L1020.34 28.7291L1020.78 30.2115L1021.24 31.6583L1021.7 33.0683L1022.18 34.4409L1022.67 35.7753L1023.18 37.0714L1023.72 38.3291L1024.27 39.5486L1024.86 40.7305L1025.47 41.8754L1026.12 42.9845L1026.79 44.0589L1027.5 45.1002L1028.25 46.11L1029.03 47.0902L1029.84 48.0429L1030.7 48.9703L1031.59 49.8748L1032.51 50.7589L1033.47 51.6253L1034.47 52.4766L1035.5 53.3156L1036.56 54.145L1037.66 54.9678L1038.78 55.7867L1039.93 56.6045L1041.1 57.424L1042.29 58.2479L1043.5 59.0787L1044.73 59.9191L1045.97 60.7714L1047.22 61.6378L1048.48 62.5206L1049.74 63.4216L1050.99 64.3428L1052.25 65.2856L1053.49 66.2516L1054.72 67.242L1055.94 68.2579L1057.13 69.3002L1058.31 70.3695L1059.45 71.4663L1060.57 72.5909L1061.66 73.7434L1062.71 74.9236L1063.72 76.1313L1064.69 77.3661L1065.62 78.6274L1066.5 79.9143L1067.33 81.226L1068.11 82.5615L1068.84 83.9195L1069.52 85.2988L1070.14 86.698L1070.71 88.1157L1071.22 89.5502L1071.67 91.0001L1072.07 92.4637L1072.42 93.9393L1072.7 95.4252L1072.93 96.9197L1073.11 98.4212L1073.24 99.928L1073.31 101.438L1073.34 102.951L1073.32 104.464L1073.26 105.977L1073.16 107.488L1073.03 108.997L1072.85 110.501L1072.65 112.001L1072.41 113.496L1072.14 114.985L1071.84 116.467L1071.51 117.942L1071.14 119.409L1070.75 120.867L1070.32 122.315L1069.86 123.753L1069.36 125.179L1068.83 126.593L1068.26 127.995L1067.66 129.382L1067.03 130.754L1066.36 132.111L1065.66 133.451L1064.92 134.775L1064.16 136.081L1063.37 137.369L1062.55 138.639L1061.7 139.89L1060.83 141.123L1059.94 142.336L1059.03 143.53L1058.1 144.705L1057.15 145.861L1056.19 146.999L1055.22 148.118L1054.23 149.22L1053.24 150.305L1052.25 151.374L1051.25 152.427L1050.25 153.466L1049.25 154.492L1048.25 155.505L1047.26 156.508L1046.28 157.501L1045.3 158.486L1044.34 159.465L1043.4 160.439L1042.46 161.411L1041.55 162.38L1040.65 163.35L1039.77 164.323L1038.92 165.299L1038.08 166.281L1037.27 167.271L1036.47 168.27L1035.71 169.279L1034.96 170.301L1034.24 171.337L1033.54 172.389L1032.86 173.457L1032.21 174.543L1031.58 175.648L1030.96 176.772L1030.37 177.918L1029.79 179.084L1029.22 180.272L1028.68 181.482L1028.14 182.714L1027.61 183.967L1027.09 185.243L1026.58 186.539L1026.07 187.856L1025.57 189.193L1025.06 190.549L1024.55 191.923L1024.04 193.314L1023.52 194.721L1022.99 196.141L1022.45 197.575L1021.89 199.02L1021.33 200.474L1020.74 201.937L1020.14 203.406L1019.52 204.88L1018.88 206.357L1018.21 207.837L1017.52 209.316L1016.81 210.794L1016.07 212.27L1015.31 213.742L1014.52 215.209L1013.71 216.669L1012.86 218.121L1011.99 219.564L1011.09 220.994L1010.16 222.409L1009.2 223.806L1008.21 225.181L1007.18 226.53L1006.12 227.848L1005.02 229.133L1003.88 230.377L1002.71 231.577L1001.5 232.727L1000.25 233.822L998.958 234.857L997.63 235.83L996.266 236.735L994.865 237.569L993.43 238.33L991.961 239.014L990.461 239.618L988.931 240.142L987.375 240.583L985.794 240.94L984.19 241.212L982.567 241.398L980.928 241.499L979.274 241.514L977.61 241.445L975.937 241.293L974.259 241.059L972.579 240.746L970.9 240.356L969.224 239.891L967.555 239.356L965.894 238.753L964.245 238.087L962.61 237.362L960.99 236.583L959.388 235.755L957.807 234.883L956.246 233.973L954.708 233.03L953.193 232.06L951.703 231.07L950.237 230.066L948.797 229.053L947.382 228.039L945.991 227.028L944.625 226.028L943.281 225.045L941.96 224.083L940.659 223.15L939.378 222.25L938.113 221.389L936.863 220.571L935.625 219.802L934.398 219.085L933.177 218.424L931.961 217.823L930.747 217.285L929.531 216.812L928.311 216.406L927.083 216.069L925.845 215.801L924.592 215.605L923.323 215.479L922.034 215.423L920.722 215.436L919.385 215.517L918.02 215.664Z" fill="#4922D9" fill-opacity="0.5"/>
</g>
<g filter="url(#filter3_f_344_593)">
<path fill-rule="evenodd" clip-rule="evenodd" d="M960.901 443.854L959.051 442.787L957.222 441.7L955.415 440.593L953.629 439.467L951.866 438.323L950.124 437.162L948.404 435.983L946.705 434.787L945.029 433.576L943.374 432.348L941.742 431.105L940.131 429.848L938.542 428.575L936.975 427.288L935.43 425.986L933.907 424.671L932.407 423.341L930.929 421.998L929.474 420.641L928.041 419.27L926.631 417.887L925.245 416.489L923.881 415.079L922.541 413.656L921.225 412.22L919.933 410.77L918.666 409.308L917.423 407.834L916.204 406.347L915.011 404.847L913.844 403.335L912.702 401.811L911.586 400.276L910.496 398.728L909.434 397.17L908.398 395.6L907.389 394.019L906.408 392.428L905.454 390.826L904.529 389.215L903.631 387.594L902.762 385.965L901.921 384.326L901.108 382.68L900.324 381.027L899.568 379.366L898.841 377.699L898.143 376.025L897.473 374.346L896.832 372.662L896.22 370.974L895.637 369.281L895.082 367.585L894.556 365.885L894.058 364.183L893.59 362.479L893.15 360.773L892.738 359.066L892.355 357.359L892.001 355.651L891.674 353.944L891.376 352.237L891.106 350.532L890.864 348.828L890.649 347.127L890.462 345.429L890.302 343.734L890.17 342.042L890.064 340.355L889.985 338.672L889.932 336.995L889.905 335.323L889.903 333.658L889.926 331.998L889.974 330.346L890.046 328.702L890.14 327.065L890.257 325.436L890.396 323.816L890.555 322.206L890.735 320.604L890.934 319.012L891.151 317.43L891.386 315.857L891.637 314.295L891.905 312.744L892.186 311.202L892.482 309.671L892.79 308.151L893.111 306.641L893.442 305.141L893.784 303.651L894.135 302.171L894.494 300.701L894.861 299.241L895.235 297.789L895.615 296.347L896.001 294.913L896.391 293.487L896.786 292.069L897.185 290.658L897.587 289.254L897.992 287.857L898.4 286.465L898.81 285.079L899.222 283.698L899.637 282.322L900.054 280.949L900.474 279.58L900.896 278.215L901.32 276.852L901.748 275.492L902.18 274.134L902.615 272.777L903.055 271.423L903.5 270.07L903.951 268.718L904.408 267.368L904.873 266.019L905.347 264.672L905.829 263.326L906.321 261.982L906.825 260.64L907.34 259.3L907.867 257.963L908.408 256.628L908.964 255.297L909.534 253.97L910.121 252.647L910.724 251.33L911.345 250.018L911.985 248.712L912.643 247.414L913.321 246.123L914.02 244.841L914.739 243.569L915.48 242.307L916.243 241.056L917.028 239.817L917.836 238.591L918.667 237.379L919.521 236.182L920.399 235L921.3 233.835L922.225 232.688L923.174 231.56L924.147 230.451L925.143 229.363L926.163 228.296L927.207 227.251L928.274 226.23L929.364 225.233L930.477 224.262L931.612 223.317L932.769 222.399L933.948 221.508L935.147 220.647L936.368 219.815L937.608 219.013L938.867 218.242L940.144 217.502L941.439 216.795L942.751 216.12L944.079 215.478L945.422 214.869L946.779 214.294L948.149 213.753L949.532 213.246L950.925 212.773L952.329 212.334L953.741 211.93L955.162 211.559L956.589 211.222L958.023 210.919L959.461 210.649L960.903 210.411L962.348 210.206L963.795 210.033L965.242 209.89L966.689 209.778L968.135 209.696L969.579 209.643L971.02 209.618L972.458 209.62L973.891 209.649L975.319 209.703L976.741 209.782L978.156 209.884L979.564 210.01L980.965 210.157L982.358 210.324L983.742 210.512L985.117 210.718L986.483 210.943L987.839 211.184L989.185 211.441L990.522 211.713L991.848 211.998L993.164 212.296L994.47 212.606L995.765 212.926L997.05 213.256L998.325 213.594L999.591 213.94L1000.85 214.292L1002.09 214.65L1003.33 215.013L1004.56 215.379L1005.78 215.749L1006.99 216.12L1008.19 216.493L1009.39 216.867L1010.58 217.24L1011.76 217.613L1012.94 217.985L1014.12 218.355L1015.29 218.724L1016.45 219.089L1017.62 219.452L1018.78 219.812L1019.94 220.169L1021.09 220.523L1022.25 220.874L1023.41 221.221L1024.57 221.566L1025.73 221.909L1026.89 222.249L1028.06 222.587L1029.22 222.923L1030.39 223.259L1031.57 223.594L1032.75 223.93L1033.93 224.266L1035.12 224.604L1036.31 224.944L1037.51 225.287L1038.71 225.634L1039.91 225.986L1041.13 226.343L1042.34 226.706L1043.57 227.077L1044.8 227.455L1046.03 227.842L1047.27 228.239L1048.51 228.646L1049.75 229.065L1051 229.496L1052.26 229.939L1053.51 230.397L1054.77 230.869L1056.03 231.355L1057.29 231.858L1058.56 232.377L1059.82 232.913L1061.09 233.466L1062.35 234.037L1063.62 234.627L1064.88 235.236L1066.14 235.864L1067.4 236.512L1068.66 237.179L1069.91 237.867L1071.16 238.575L1072.41 239.304L1073.65 240.053L1074.89 240.823L1076.12 241.614L1077.35 242.426L1078.57 243.258L1079.78 244.112L1080.99 244.987L1082.19 245.882L1083.39 246.798L1084.57 247.736L1085.75 248.694L1086.93 249.673L1088.09 250.673L1089.25 251.694L1090.4 252.735L1091.53 253.798L1092.66 254.881L1093.78 255.984L1094.89 257.108L1095.99 258.253L1097.08 259.419L1098.16 260.604L1099.23 261.811L1100.29 263.038L1101.34 264.285L1102.37 265.552L1103.39 266.84L1104.4 268.148L1105.4 269.477L1106.38 270.825L1107.35 272.194L1108.31 273.583L1109.25 274.992L1110.17 276.421L1111.09 277.869L1111.98 279.338L1112.86 280.825L1113.73 282.333L1114.57 283.86L1115.41 285.406L1116.22 286.971L1117.02 288.556L1117.79 290.159L1118.55 291.781L1119.3 293.422L1120.02 295.081L1120.72 296.759L1121.4 298.455L1122.07 300.169L1122.71 301.901L1123.33 303.65L1123.93 305.417L1124.5 307.201L1125.05 309.002L1125.58 310.82L1126.09 312.654L1126.57 314.504L1127.03 316.37L1127.46 318.251L1127.86 320.148L1128.24 322.059L1128.59 323.985L1128.91 325.925L1129.21 327.878L1129.47 329.844L1129.71 331.823L1129.91 333.814L1130.09 335.817L1130.23 337.831L1130.35 339.856L1130.43 341.89L1130.47 343.934L1130.49 345.987L1130.47 348.047L1130.42 350.115L1130.33 352.19L1130.21 354.271L1130.05 356.358L1129.85 358.449L1129.62 360.543L1129.35 362.641L1129.05 364.741L1128.71 366.843L1128.33 368.945L1127.91 371.048L1127.45 373.149L1126.96 375.248L1126.42 377.344L1125.85 379.437L1125.23 381.526L1124.58 383.609L1123.89 385.686L1123.16 387.755L1122.39 389.817L1121.58 391.869L1120.73 393.912L1119.84 395.943L1118.91 397.963L1117.94 399.97L1116.93 401.963L1115.88 403.942L1114.8 405.904L1113.67 407.85L1112.5 409.779L1111.3 411.689L1110.06 413.579L1108.77 415.448L1107.45 417.295L1106.09 419.119L1104.7 420.92L1103.26 422.695L1101.79 424.443L1100.28 426.165L1098.74 427.857L1097.16 429.52L1095.54 431.152L1093.89 432.753L1092.2 434.319L1090.48 435.852L1088.73 437.349L1086.94 438.81L1085.12 440.232L1083.27 441.617L1081.38 442.961L1079.47 444.264L1077.53 445.526L1075.56 446.744L1073.56 447.919L1071.53 449.049L1069.48 450.133L1067.41 451.171L1065.31 452.161L1063.19 453.103L1061.05 453.997L1058.88 454.841L1056.7 455.636L1054.51 456.379L1052.29 457.072L1050.06 457.714L1047.82 458.304L1045.56 458.842L1043.3 459.328L1041.02 459.762L1038.74 460.144L1036.45 460.473L1034.15 460.751L1031.85 460.976L1029.55 461.15L1027.24 461.273L1024.94 461.344L1022.63 461.366L1020.33 461.337L1018.03 461.259L1015.74 461.133L1013.45 460.959L1011.17 460.737L1008.9 460.469L1006.64 460.156L1004.39 459.798L1002.15 459.396L999.92 458.952L997.707 458.466L995.507 457.939L993.323 457.373L991.154 456.768L989.003 456.126L986.868 455.448L984.751 454.734L982.653 453.987L980.574 453.207L978.514 452.395L976.474 451.553L974.454 450.681L972.455 449.782L970.476 448.855L968.518 447.903L966.582 446.925L964.667 445.924L962.773 444.9L960.901 443.854Z" fill="#4922D9" fill-opacity="0.5"/>
</g>
<g filter="url(#filter4_f_344_593)">
<path fill-rule="evenodd" clip-rule="evenodd" d="M1211.48 2881.4L1212.61 2882.34L1216.07 2883.35L1222.07 2884.51L1230.96 2885.9L1243.29 2887.64L1259.76 2889.88L1281.29 2892.81L1308.94 2896.67L1343.91 2901.74L1387.26 2908.36L1439.66 2916.87L1500.87 2927.5L1569.06 2940.3L1640.23 2954.92L1707.96 2970.48L1764.06 2985.58L1800.15 2998.4L1810 3007.23L1791.66 3010.86L1748.13 3009.03L1686.38 3002.43L1615.09 2992.44L1542.36 2980.63L1474.2 2968.43L1414.12 2956.87L1363.49 2946.56L1322.22 2937.76L1289.39 2930.52L1263.78 2924.74L1244.17 2920.26L1229.47 2916.93L1218.82 2914.62L1211.57 2913.26L1207.31 2912.79L1205.86 2913.27L1207.19 2914.76L1211.26 2917.36L1218.26 2921.22L1228.56 2926.61L1242.73 2933.9L1261.58 2943.56L1286.04 2956.19L1317.17 2972.49L1355.93 2993.15L1402.88 3018.75L1457.73 3049.45L1518.71 3084.67L1582.07 3122.72L1641.91 3160.56L1690.82 3194.04L1721.44 3218.64L1728.53 3230.66L1710.77 3228.4L1671.22 3212.69L1616.23 3186.54L1553.45 3154.06L1489.84 3119.38L1430.45 3085.74L1378.18 3055.23L1334.12 3028.87L1298.11 3006.89L1269.34 2989.04L1246.75 2974.86L1229.25 2963.81L1215.91 2955.4L1205.92 2949.2L1198.69 2944.87L1193.75 2942.2L1190.81 2941.02L1189.66 2941.28L1190.25 2943.01L1192.58 2946.32L1196.8 2951.41L1203.14 2958.62L1211.96 2968.4L1223.73 2981.35L1239.05 2998.23L1258.6 3019.94L1283.1 3047.46L1313.11 3081.72L1348.85 3123.31L1389.79 3172.08L1434.27 3226.61L1479.15 3283.7L1519.85 3338.21L1550.91 3383.61L1567.23 3413.24L1565.66 3422.25L1546.04 3409.18L1511.42 3376.47L1466.96 3329.58L1418.43 3275.21L1370.77 3219.59L1327.37 3167.31L1289.97 3121.09L1259.01 3082L1234.13 3050.03L1214.56 3024.52L1199.43 3004.6L1187.9 2989.37L1179.27 2978.05L1173 2970.01L1168.66 2964.81L1166 2962.2L1164.86 2962.1L1165.18 2964.57L1166.9 2969.69L1170.05 2977.73L1174.78 2989.16L1181.32 3004.68L1189.96 3025.21L1201.07 3051.84L1214.99 3085.79L1231.98 3128.18L1252.06 3179.69L1274.78 3240.03L1299.01 3307.26L1322.83 3377.21L1343.54 3443.37L1358.12 3497.58L1363.98 3531.85L1359.79 3540.61L1345.95 3522.59L1324.55 3481.22L1298.65 3423.37L1271.39 3357.19L1245.32 3290.01L1222.05 3227.17L1202.3 3171.72L1186.15 3124.82L1173.27 3086.37L1163.19 3055.55L1155.38 3031.31L1149.39 3012.54L1144.81 2998.3L1141.33 2987.77L1138.71 2980.35L1136.77 2975.6L1135.36 2973.24L1134.39 2973.12L1133.79 2975.24L1133.51 2979.73L1133.52 2986.87L1133.79 2997.08L1134.3 3010.99L1135.04 3029.38L1135.96 3053.27L1137 3083.8L1138.07 3122.19L1139 3169.44L1139.55 3226L1139.4 3291.15L1138.2 3362.35L1135.62 3434.65L1131.46 3500.79L1125.81 3552.09L1119.13 3580.5L1112.13 3581L1105.67 3553.34L1100.44 3502.17L1096.84 3435.44L1094.91 3361.97L1094.39 3289.36L1094.91 3222.83L1096.05 3165.14L1097.49 3117.09L1098.98 3078.25L1100.36 3047.57L1101.52 3023.77L1102.43 3005.68L1103.04 2992.27L1103.34 2982.76L1103.29 2976.58L1102.86 2973.41L1101.95 2973.15L1100.5 2975.79L1098.39 2981.38L1095.48 2990.19L1091.54 3002.73L1086.3 3019.72L1079.39 3042.09L1070.34 3070.93L1058.65 3107.39L1043.8 3152.45L1025.38 3206.47L1003.34 3268.7L978.192 3336.53L951.294 3405.08L924.953 3467.26L902.19 3514.81L886.119 3540.24L879.075 3539.17L881.877 3511.8L893.602 3462.83L911.972 3399.89L934.119 3331.18L957.349 3263.6L979.613 3201.84L999.648 3148.29L1016.87 3103.63L1031.19 3067.41L1042.78 3038.62L1051.97 3016.12L1059.07 2998.78L1064.41 2985.64L1068.25 2975.93L1070.78 2969.06L1072.13 2964.59L1072.36 2962.26L1071.49 2961.91L1069.44 2963.52L1066.08 2967.18L1061.19 2973.09L1054.46 2981.61L1045.45 2993.21L1033.61 3008.52L1018.24 3028.31L998.546 3053.44L973.663 3084.74L942.853 3122.82L905.742 3167.75L862.731 3218.52L815.448 3272.64L767.118 3325.77L722.548 3371.96L687.463 3404.62L667.177 3418.21L664.993 3409.99L681.093 3381.03L712.493 3335.92L754.105 3281.22L800.294 3223.62L846.215 3168.43L888.514 3119.05L925.384 3077.01L956.245 3042.51L981.303 3014.94L1001.17 2993.35L1016.58 2976.73L1028.25 2964.14L1036.79 2954.83L1042.67 2948.19L1046.18 2943.83L1047.47 2941.49L1046.52 2941.07L1043.28 2942.49L1037.59 2945.77L1029.14 2951.04L1017.41 2958.57L1001.66 2968.74L980.99 2982.06L954.314 2999.07L920.504 3020.31L878.599 3046.15L828.192 3076.51L769.981 3110.59L706.394 3146.54L642.033 3181.24L583.561 3210.61L538.68 3230.28L514.255 3236.79L514.213 3228.73L538.221 3207.26L581.862 3175.73L638.183 3138.63L699.777 3100.29L760.453 3064.04L816.036 3031.9L864.356 3004.71L904.789 2982.47L937.688 2964.71L963.894 2950.78L984.404 2939.97L1000.18 2931.68L1012.04 2925.39L1020.66 2920.69L1026.53 2917.27L1030 2914.9L1031.28 2913.43L1030.44 2912.74L1027.42 2912.79L1022.03 2913.57L1013.95 2915.1L1002.67 2917.46L987.535 2920.74L967.663 2925.06L942.003 2930.57L909.368 2937.41L868.586 2945.66L818.776 2955.28L759.806 2966.01L692.925 2977.3L621.414 2988.2L550.989 2997.4L489.48 3003.43L445.506 3004.99L426.248 3001.39L435.166 2992.81L470.758 2980.37L527.085 2965.72L595.752 2950.61L668.308 2936.43L738.024 2924.05L800.626 2913.82L854.127 2905.69L898.217 2899.42L933.579 2894.67L961.344 2891.1L982.733 2888.42L998.859 2886.38L1010.64 2884.81L1018.76 2883.56L1023.68 2882.5L1025.63 2881.55L1024.62 2880.61L1020.66 2879.6L1013.6 2878.42L1003.05 2876.96L988.393 2875.1L968.793 2872.64L943.188 2869.39L910.379 2865.04L869.174 2859.29L818.698 2851.79L758.873 2842.25L691.077 2830.54L618.808 2816.87L548.041 2801.92L486.823 2786.95L443.816 2773.61L426 2763.65L436.431 2758.39L473.175 2758.34L530.015 2763.07L598.525 2771.42L670.426 2781.93L739.251 2793.22L800.961 2804.21L853.727 2814.22L897.314 2822.92L932.423 2830.2L960.173 2836.12L981.766 2840.81L998.309 2844.41L1010.73 2847.04L1019.77 2848.83L1025.97 2849.85L1029.72 2850.13L1031.24 2849.68L1030.64 2848.46L1027.88 2846.39L1022.81 2843.33L1015.11 2839.06L1004.34 2833.32L989.899 2825.72L970.998 2815.78L946.715 2802.91L916.052 2786.45L878.089 2765.7L832.271 2740.11L778.852 2709.51L719.446 2674.41L657.561 2636.43L598.789 2598.5L550.292 2564.7L519.389 2539.58L511.52 2527L528.416 2528.9L567.425 2544.68L622.408 2571.42L685.695 2604.9L750.136 2640.84L810.421 2675.78L863.46 2707.46L908.07 2734.77L944.371 2757.45L973.199 2775.76L995.661 2790.19L1012.87 2801.31L1025.79 2809.63L1035.22 2815.58L1041.74 2819.47L1045.74 2821.48L1047.42 2821.66L1046.83 2819.93L1044.03 2816.23L1038.94 2810.36L1031.29 2801.95L1020.67 2790.48L1006.52 2775.24L988.159 2755.34L964.833 2729.79L935.869 2697.59L900.896 2657.97L860.197 2610.84L815.143 2557.23L768.577 2499.91L724.912 2443.6L689.649 2394.68L668.222 2359.95L664.439 2344.81L679.183 2351.58L710.066 2378.67L752.248 2421.26L799.966 2472.88L848.014 2527.24L892.634 2579.43L931.716 2626.39L964.521 2666.69L991.222 2700.1L1012.48 2727.11L1029.14 2748.5L1042.02 2765.15L1051.86 2777.86L1059.27 2787.3L1064.7 2794L1068.52 2798.35L1070.97 2800.59L1072.21 2800.87L1072.32 2799.18L1071.33 2795.42L1069.19 2789.35L1065.79 2780.6L1060.95 2768.63L1054.44 2752.72L1045.95 2731.98L1035.17 2705.32L1021.74 2671.59L1005.45 2629.7L986.276 2578.98L964.621 2519.66L941.514 2453.55L918.754 2384.54L898.865 2318.9L884.731 2264.59L878.909 2229.64L882.821 2219.94L896.21 2237.2L917.16 2278.41L942.709 2336.84L969.722 2404.22L995.622 2472.93L1018.75 2537.32L1038.33 2594.11L1054.28 2642.03L1066.93 2681.14L1076.76 2712.29L1084.3 2736.59L1090.03 2755.18L1094.35 2769.05L1097.56 2778.99L1099.91 2785.56L1101.56 2789.13L1102.62 2789.8L1103.2 2787.55L1103.36 2782.36L1103.17 2773.95L1102.66 2761.86L1101.84 2745.36L1100.75 2723.51L1099.44 2695.15L1097.97 2659.04L1096.49 2614.01L1095.22 2559.38L1094.47 2495.47L1094.61 2424.35L1096.05 2350.44L1099.11 2280.63L1103.84 2223.54L1109.98 2187.69L1116.9 2179L1123.77 2198.86L1129.81 2243.65L1134.46 2306.02L1137.54 2377.24L1139.15 2449.44L1139.59 2516.91L1139.23 2576.36L1138.39 2626.57L1137.34 2667.68L1136.28 2700.59L1135.31 2726.46L1134.51 2746.49L1133.93 2761.73L1133.58 2773.04L1133.49 2781.1L1133.67 2786.4L1134.16 2789.26L1135.01 2789.84L1136.27 2788.2L1138.03 2784.24L1140.41 2777.71L1143.6 2768.23L1147.79 2755.25L1153.3 2738.02L1160.48 2715.63L1169.78 2687.03L1181.71 2651.12L1196.78 2606.96L1215.36 2554.18L1237.56 2493.47L1262.86 2427.21L1289.97 2359.99L1316.63 2298.61L1339.82 2251.13L1356.35 2225.1L1363.76 2225.24L1361.03 2251.8L1348.99 2300.46L1329.91 2363.74L1306.76 2433.29L1282.41 2501.96L1259.05 2564.8L1238.05 2619.22L1220.06 2664.47L1205.18 2701L1193.21 2729.83L1183.82 2752.18L1176.65 2769.18L1171.37 2781.83L1167.74 2790.89L1165.58 2796.89L1164.81 2800.2L1165.47 2800.92L1167.64 2799.1L1171.42 2794.74L1177.04 2787.64L1184.86 2777.43L1195.4 2763.52L1209.3 2745.19L1227.36 2721.57L1250.45 2691.74L1279.41 2654.95L1314.77 2610.95L1356.37 2560.4L1402.96 2505.43L1451.68 2450.05L1498.05 2400.04L1536.43 2362.12L1561.28 2342.36L1568.75 2344.31L1557.91 2367.76L1531.05 2408.81L1492.82 2461.17L1448.71 2518.08L1403.69 2573.87L1361.38 2624.7L1323.88 2668.65L1292.04 2705.2L1265.84 2734.78L1244.78 2758.23L1228.19 2776.54L1215.36 2790.66L1205.66 2801.37L1198.57 2809.35L1193.71 2815.07L1190.8 2818.92L1189.66 2821.13L1190.25 2821.85L1192.61 2821.14L1196.88 2818.95L1203.34 2815.18L1212.39 2809.6L1224.59 2801.94L1240.67 2791.78L1261.53 2778.65L1288.21 2762.03L1321.81 2741.4L1363.25 2716.44L1412.94 2687.19L1470.28 2654.37L1533 2619.72L1596.72 2586.13L1655.02 2557.5L1700.28 2538.06L1725.51 2531.31L1726.4 2538.85L1702.87 2559.76L1659.05 2590.89L1601.85 2627.83L1538.88 2666.2L1476.63 2702.57L1419.54 2734.82L1369.99 2762.06L1328.65 2784.24L1295.18 2801.85L1268.71 2815.58L1248.19 2826.11L1232.62 2834.1L1221.16 2840.05L1213.16 2844.37L1208.18 2847.35L1205.99 2849.18L1206.55 2849.96L1209.9 2849.79L1216.16 2848.71L1225.67 2846.72L1239 2843.73L1256.94 2839.63L1280.51 2834.28L1310.9 2827.51L1349.36 2819.22L1396.95 2809.37L1454.08 2798.16L1519.94 2786.07L1591.75 2774L1664.29 2763.26L1730.03 2755.42L1780.25 2751.95L1807.17 2753.82L1806.32 2761.08L1778.09 2772.81L1727.51 2787.38L1662.54 2802.97L1591.67 2818.01L1521.98 2831.45L1458.25 2842.79L1402.95 2851.95L1356.76 2859.14L1319.23 2864.67L1289.38 2868.88L1266.02 2872.07L1248.05 2874.51L1234.49 2876.39L1224.56 2877.88L1217.69 2879.1L1213.45 2880.15L1211.6 2881.11L1211.48 2881.4Z" fill="#4922D9" fill-opacity="0.5"/>
</g>
<g filter="url(#filter5_f_344_593)">
<path fill-rule="evenodd" clip-rule="evenodd" d="M283.672 2030.83L283.681 2032.21L283.707 2033.59L283.75 2034.97L283.809 2036.36L283.884 2037.74L283.975 2039.14L284.08 2040.53L284.199 2041.93L284.33 2043.34L284.472 2044.75L284.625 2046.17L284.785 2047.6L284.951 2049.04L285.123 2050.48L285.296 2051.93L285.47 2053.39L285.643 2054.85L285.811 2056.33L285.972 2057.81L286.124 2059.3L286.263 2060.79L286.388 2062.29L286.494 2063.8L286.58 2065.31L286.642 2066.82L286.676 2068.34L286.681 2069.85L286.654 2071.37L286.59 2072.88L286.487 2074.39L286.343 2075.89L286.154 2077.38L285.919 2078.87L285.634 2080.34L285.299 2081.79L284.91 2083.24L284.465 2084.66L283.965 2086.06L283.407 2087.44L282.791 2088.8L282.116 2090.13L281.382 2091.43L280.589 2092.7L279.738 2093.94L278.83 2095.15L277.865 2096.32L276.846 2097.46L275.774 2098.56L274.651 2099.62L273.48 2100.65L272.263 2101.64L271.003 2102.59L269.704 2103.5L268.368 2104.37L266.999 2105.21L265.601 2106.02L264.176 2106.78L262.73 2107.52L261.264 2108.22L259.784 2108.9L258.292 2109.54L256.792 2110.16L255.288 2110.75L253.782 2111.32L252.279 2111.87L250.781 2112.4L249.291 2112.92L247.812 2113.42L246.347 2113.92L244.899 2114.4L243.469 2114.89L242.06 2115.37L240.674 2115.85L239.312 2116.33L237.977 2116.82L236.67 2117.32L235.392 2117.83L234.145 2118.35L232.93 2118.89L231.748 2119.45L230.6 2120.04L229.486 2120.65L228.408 2121.29L227.365 2121.97L226.36 2122.68L225.391 2123.42L224.46 2124.22L223.568 2125.05L222.713 2125.94L221.898 2126.88L221.121 2127.88L220.384 2128.94L219.688 2130.07L219.031 2131.27L218.415 2132.55L217.84 2133.91L217.307 2135.36L216.816 2136.9L216.368 2138.54L215.964 2140.3L215.604 2142.17L215.289 2144.17L215.021 2146.31L214.801 2148.6L214.052 2150.03L211.914 2149.03L209.884 2148.14L207.954 2147.37L206.114 2146.7L204.358 2146.13L202.678 2145.66L201.068 2145.27L199.521 2144.97L198.032 2144.76L196.597 2144.62L195.209 2144.55L193.866 2144.56L192.562 2144.64L191.294 2144.78L190.058 2144.99L188.85 2145.26L187.668 2145.59L186.509 2145.98L185.368 2146.42L184.244 2146.91L183.134 2147.46L182.036 2148.05L180.946 2148.69L179.862 2149.37L178.783 2150.1L177.706 2150.86L176.629 2151.66L175.55 2152.5L174.468 2153.37L173.379 2154.27L172.284 2155.19L171.18 2156.15L170.065 2157.12L168.938 2158.11L167.799 2159.11L166.645 2160.13L165.476 2161.16L164.291 2162.19L163.088 2163.22L161.868 2164.25L160.63 2165.27L159.372 2166.28L158.096 2167.28L156.801 2168.26L155.486 2169.22L154.153 2170.15L152.801 2171.05L151.432 2171.91L150.044 2172.74L148.641 2173.53L147.221 2174.27L145.787 2174.96L144.34 2175.6L142.881 2176.18L141.411 2176.71L139.932 2177.18L138.446 2177.58L136.953 2177.93L135.457 2178.2L133.958 2178.42L132.459 2178.56L130.96 2178.64L129.464 2178.66L127.973 2178.61L126.487 2178.49L125.009 2178.31L123.539 2178.07L122.08 2177.77L120.631 2177.41L119.195 2176.99L117.772 2176.52L116.363 2176.01L114.969 2175.44L113.59 2174.84L112.226 2174.19L110.878 2173.5L109.546 2172.78L108.229 2172.03L106.928 2171.26L105.642 2170.46L104.371 2169.64L103.114 2168.8L101.871 2167.94L100.64 2167.08L99.4221 2166.21L98.215 2165.33L97.0182 2164.45L95.8308 2163.56L94.6515 2162.68L93.4794 2161.8L92.3133 2160.93L91.1522 2160.07L89.9949 2159.21L88.8402 2158.36L87.6869 2157.53L86.5341 2156.71L85.3805 2155.9L84.225 2155.1L83.0667 2154.32L81.9044 2153.55L80.7372 2152.8L79.5641 2152.07L78.3843 2151.35L77.1969 2150.64L76.0013 2149.95L74.7966 2149.28L73.5824 2148.62L72.358 2147.97L71.1231 2147.34L69.8773 2146.72L68.6204 2146.11L67.3523 2145.5L66.073 2144.91L64.7825 2144.32L63.4812 2143.74L62.1694 2143.17L60.8476 2142.59L59.5165 2142.02L58.1769 2141.45L56.8297 2140.87L55.4762 2140.29L54.1174 2139.7L52.755 2139.1L51.3905 2138.5L50.0256 2137.88L48.6623 2137.24L47.3026 2136.59L45.9488 2135.92L44.6033 2135.22L43.2684 2134.51L41.9469 2133.77L40.6415 2133L39.355 2132.2L38.0902 2131.37L36.8502 2130.51L35.6379 2129.62L34.4562 2128.69L33.3081 2127.72L32.1965 2126.72L31.1244 2125.68L30.0943 2124.6L29.1089 2123.48L28.1707 2122.32L27.2819 2121.13L26.4445 2119.89L25.6604 2118.62L24.9311 2117.32L24.2579 2115.97L23.6417 2114.6L23.0832 2113.19L22.5827 2111.75L22.1403 2110.29L21.7556 2108.79L21.428 2107.27L21.1565 2105.74L20.9398 2104.18L20.7764 2102.6L20.6644 2101.01L20.6016 2099.41L20.5856 2097.8L20.6139 2096.19L20.6835 2094.57L20.7916 2092.95L20.9349 2091.33L21.1102 2089.71L21.314 2088.1L21.5429 2086.5L21.7934 2084.9L22.0618 2083.32L22.3445 2081.75L22.6379 2080.2L22.9385 2078.66L23.2425 2077.13L23.5466 2075.63L23.8471 2074.14L24.1407 2072.67L24.4239 2071.22L24.6933 2069.79L24.9457 2068.38L25.1778 2066.99L25.3865 2065.62L25.5685 2064.27L25.7209 2062.94L25.8405 2061.63L25.9244 2060.33L25.9693 2059.06L25.9725 2057.79L25.9307 2056.55L25.841 2055.32L25.7001 2054.1L25.505 2052.89L25.2523 2051.7L24.9387 2050.51L24.5607 2049.33L24.1146 2048.15L23.5966 2046.98L23.0026 2045.82L22.3284 2044.65L21.5693 2043.48L20.7205 2042.3L19.7766 2041.12L18.732 2039.93L17.5804 2038.73L16.3152 2037.51L14.929 2036.27L13.4137 2035.01L11.7605 2033.72L9.95951 2032.4L8 2031.05L9.3531 2029.68L11.2033 2028.35L12.9025 2027.05L14.4607 2025.79L15.8872 2024.54L17.1901 2023.31L18.3771 2022.11L19.4551 2020.91L20.4304 2019.73L21.3089 2018.55L22.096 2017.38L22.7968 2016.21L23.4159 2015.04L23.9576 2013.87L24.4262 2012.7L24.8255 2011.52L25.1592 2010.34L25.4309 2009.14L25.644 2007.94L25.8018 2006.73L25.9075 2005.5L25.9642 2004.26L25.975 2003L25.943 2001.73L25.8713 2000.44L25.7627 1999.13L25.6204 1997.81L25.4475 1996.46L25.247 1995.1L25.022 1993.72L24.7757 1992.31L24.5113 1990.89L24.2322 1989.45L23.9416 1987.98L23.6429 1986.5L23.3396 1985L23.0351 1983.49L22.733 1981.95L22.4369 1980.4L22.1504 1978.83L21.8771 1977.26L21.6205 1975.67L21.3844 1974.07L21.1722 1972.46L20.9875 1970.84L20.8336 1969.22L20.714 1967.6L20.6317 1965.98L20.5899 1964.37L20.5915 1962.75L20.6391 1961.15L20.7353 1959.56L20.8821 1957.98L21.0816 1956.41L21.3355 1954.87L21.6451 1953.34L22.0115 1951.84L22.4355 1950.37L22.9175 1948.92L23.4575 1947.5L24.0554 1946.11L24.7105 1944.76L25.4221 1943.44L26.1889 1942.16L27.0095 1940.92L27.8821 1939.71L28.8048 1938.54L29.7754 1937.41L30.7916 1936.32L31.8506 1935.27L32.9499 1934.25L34.0867 1933.27L35.258 1932.33L36.4609 1931.43L37.6924 1930.55L38.9496 1929.72L40.2295 1928.91L41.5292 1928.13L42.8459 1927.38L44.1768 1926.66L45.5192 1925.96L46.8706 1925.28L48.2287 1924.62L49.5911 1923.98L50.9557 1923.35L52.3205 1922.74L53.6838 1922.14L55.0439 1921.55L56.3992 1920.97L57.7485 1920.39L59.0907 1919.82L60.4246 1919.24L61.7494 1918.67L63.0644 1918.09L64.3692 1917.52L65.6631 1916.93L66.946 1916.34L68.2177 1915.74L69.4782 1915.13L70.7275 1914.52L71.9658 1913.88L73.1935 1913.24L74.4109 1912.59L75.6186 1911.92L76.817 1911.23L78.0069 1910.53L79.1891 1909.82L80.3642 1909.09L81.5332 1908.34L82.6969 1907.58L83.8564 1906.81L85.0127 1906.01L86.1668 1905.21L87.3197 1904.39L88.4727 1903.56L89.6268 1902.72L90.7832 1901.86L91.943 1901L93.1074 1900.13L94.2774 1899.25L95.4543 1898.37L96.639 1897.49L97.8327 1896.61L99.0364 1895.73L100.251 1894.85L101.477 1893.99L102.716 1893.13L103.969 1892.28L105.235 1891.46L106.517 1890.65L107.813 1889.87L109.125 1889.11L110.452 1888.38L111.795 1887.68L113.154 1887.02L114.528 1886.4L115.918 1885.82L117.322 1885.29L118.741 1884.81L120.173 1884.37L121.617 1884L123.073 1883.68L124.54 1883.42L126.015 1883.22L127.499 1883.08L128.989 1883.01L130.483 1883L131.981 1883.06L133.481 1883.18L134.98 1883.38L136.477 1883.63L137.971 1883.95L139.459 1884.34L140.941 1884.79L142.414 1885.3L143.876 1885.86L145.328 1886.49L146.766 1887.16L148.19 1887.89L149.599 1888.66L150.992 1889.47L152.367 1890.33L153.725 1891.22L155.064 1892.14L156.384 1893.09L157.686 1894.06L158.968 1895.05L160.231 1896.06L161.476 1897.08L162.702 1898.11L163.91 1899.14L165.1 1900.17L166.274 1901.2L167.433 1902.22L168.577 1903.23L169.707 1904.22L170.826 1905.2L171.933 1906.16L173.031 1907.09L174.122 1908L175.206 1908.88L176.286 1909.73L177.363 1910.54L178.44 1911.32L179.518 1912.06L180.6 1912.75L181.688 1913.41L182.783 1914.02L183.889 1914.57L185.008 1915.08L186.143 1915.54L187.297 1915.95L188.471 1916.29L189.67 1916.58L190.897 1916.81L192.154 1916.98L193.446 1917.08L194.777 1917.11L196.15 1917.07L197.569 1916.95L199.041 1916.76L200.568 1916.49L202.158 1916.13L203.815 1915.69L205.546 1915.15L207.358 1914.51L209.259 1913.77L211.256 1912.92L213.359 1911.95L214.741 1912.3L214.946 1914.63L215.199 1916.82L215.499 1918.86L215.844 1920.77L216.235 1922.56L216.669 1924.24L217.146 1925.82L217.666 1927.29L218.227 1928.68L218.83 1929.98L219.474 1931.21L220.158 1932.36L220.882 1933.44L221.646 1934.46L222.449 1935.42L223.291 1936.32L224.172 1937.18L225.091 1937.98L226.047 1938.74L227.041 1939.47L228.072 1940.15L229.138 1940.8L230.241 1941.42L231.378 1942.02L232.55 1942.59L233.755 1943.13L234.992 1943.66L236.26 1944.18L237.557 1944.68L238.884 1945.17L240.237 1945.66L241.616 1946.14L243.018 1946.62L244.441 1947.1L245.884 1947.58L247.344 1948.07L248.819 1948.57L250.305 1949.09L251.801 1949.61L253.303 1950.16L254.808 1950.72L256.313 1951.31L257.815 1951.92L259.31 1952.55L260.794 1953.21L262.265 1953.91L263.718 1954.63L265.15 1955.39L266.557 1956.18L267.935 1957.01L269.282 1957.87L270.593 1958.77L271.866 1959.71L273.097 1960.69L274.283 1961.7L275.421 1962.75L276.51 1963.84L277.546 1964.97L278.529 1966.13L279.455 1967.32L280.324 1968.55L281.136 1969.81L281.889 1971.11L282.582 1972.43L283.217 1973.78L283.794 1975.15L284.312 1976.55L284.774 1977.96L285.181 1979.4L285.533 1980.85L285.834 1982.32L286.085 1983.8L286.288 1985.29L286.446 1986.79L286.561 1988.3L286.637 1989.81L286.676 1991.32L286.681 1992.83L286.656 1994.35L286.602 1995.86L286.524 1997.37L286.424 1998.88L286.304 2000.38L286.169 2001.88L286.021 2003.37L285.863 2004.86L285.697 2006.33L285.526 2007.8L285.352 2009.26L285.178 2010.71L285.005 2012.16L284.837 2013.6L284.675 2015.03L284.52 2016.45L284.374 2017.86L284.239 2019.27L284.117 2020.68L284.007 2022.07L283.911 2023.47L283.831 2024.86L283.767 2026.24L283.719 2027.63L283.687 2029.01L283.673 2030.39L283.672 2030.83Z" fill="#4922D9" fill-opacity="0.5"/>
</g>
<g filter="url(#filter6_f_344_593)">
<path fill-rule="evenodd" clip-rule="evenodd" d="M214 1079.18L214.007 1080.65L214.029 1082.12L214.064 1083.59L214.113 1085.07L214.175 1086.55L214.249 1088.03L214.335 1089.51L214.433 1091L214.542 1092.5L214.662 1094L214.793 1095.5L214.933 1097.02L215.083 1098.54L215.241 1100.07L215.409 1101.61L215.584 1103.16L215.767 1104.72L215.958 1106.29L216.155 1107.87L216.358 1109.46L216.567 1111.06L216.782 1112.68L217.001 1114.3L217.225 1115.94L217.453 1117.6L217.684 1119.27L217.918 1120.95L218.154 1122.65L218.392 1124.36L218.631 1126.09L218.871 1127.83L219.111 1129.59L219.351 1131.37L219.59 1133.16L219.827 1134.97L220.062 1136.79L220.295 1138.64L220.524 1140.5L220.75 1142.38L220.97 1144.28L221.186 1146.2L221.396 1148.13L221.599 1150.08L221.796 1152.06L221.984 1154.05L222.164 1156.06L222.335 1158.09L222.497 1160.13L222.647 1162.2L222.787 1164.29L222.915 1166.39L223.03 1168.52L223.131 1170.66L223.219 1172.82L223.292 1175L223.349 1177.2L223.39 1179.42L223.413 1181.66L223.419 1183.91L223.406 1186.18L223.374 1188.47L223.322 1190.78L223.249 1193.1L223.154 1195.45L223.037 1197.8L222.896 1200.17L222.732 1202.56L222.543 1204.96L222.328 1207.38L222.087 1209.81L221.818 1212.25L221.522 1214.71L221.198 1217.18L220.844 1219.65L220.459 1222.14L220.045 1224.64L219.598 1227.15L219.12 1229.67L218.608 1232.19L218.063 1234.72L217.484 1237.26L216.869 1239.8L216.22 1242.34L215.534 1244.89L214.811 1247.44L214.051 1249.99L213.253 1252.54L212.417 1255.09L211.542 1257.63L210.628 1260.18L209.673 1262.71L208.679 1265.24L207.644 1267.77L206.568 1270.28L205.45 1272.79L204.291 1275.28L203.09 1277.76L201.847 1280.23L200.561 1282.69L199.233 1285.12L197.862 1287.54L196.449 1289.94L194.992 1292.32L193.493 1294.68L191.951 1297.01L190.367 1299.32L188.74 1301.6L187.07 1303.86L185.358 1306.08L183.604 1308.28L181.809 1310.44L179.971 1312.58L178.093 1314.67L176.175 1316.73L174.216 1318.75L172.217 1320.74L170.179 1322.68L168.103 1324.59L165.989 1326.44L163.837 1328.26L161.649 1330.03L159.425 1331.76L157.166 1333.43L154.872 1335.06L152.546 1336.64L150.187 1338.16L147.796 1339.64L145.375 1341.06L142.924 1342.43L140.445 1343.74L137.939 1344.99L135.406 1346.19L132.848 1347.34L130.266 1348.42L127.661 1349.44L125.035 1350.41L122.388 1351.31L119.723 1352.15L117.039 1352.93L114.339 1353.65L111.624 1354.3L108.895 1354.9L106.153 1355.43L103.401 1355.89L100.638 1356.3L97.8672 1356.63L95.0892 1356.91L92.3054 1357.12L89.5173 1357.27L86.7263 1357.35L83.9337 1357.37L81.1408 1357.32L78.3491 1357.22L75.5599 1357.05L72.7745 1356.81L69.9943 1356.52L67.2206 1356.16L64.4546 1355.74L61.6976 1355.26L58.951 1354.72L56.216 1354.12L53.4937 1353.46L50.7854 1352.74L48.0922 1351.97L45.4153 1351.13L42.7558 1350.24L40.1148 1349.3L37.4934 1348.3L34.8925 1347.25L32.3133 1346.15L29.7566 1345L27.2234 1343.79L24.7146 1342.54L22.2311 1341.24L19.7737 1339.89L17.3431 1338.49L14.9402 1337.05L12.5657 1335.57L10.2202 1334.05L7.90445 1332.48L5.61902 1330.87L3.36449 1329.23L1.14141 1327.55L-1.04973 1325.83L-3.20846 1324.07L-5.33434 1322.28L-7.42699 1320.46L-9.48605 1318.61L-11.5112 1316.73L-13.5022 1314.82L-15.4587 1312.88L-17.3805 1310.92L-19.2675 1308.93L-21.1195 1306.91L-22.9364 1304.87L-24.718 1302.82L-26.4645 1300.74L-28.1756 1298.64L-29.8515 1296.52L-31.4921 1294.39L-33.0976 1292.24L-34.668 1290.08L-36.2035 1287.9L-37.7041 1285.71L-39.1701 1283.51L-40.6016 1281.3L-41.9989 1279.08L-43.3621 1276.85L-44.6917 1274.62L-45.9877 1272.37L-47.2506 1270.12L-48.4806 1267.87L-49.6781 1265.62L-50.8435 1263.36L-51.977 1261.09L-53.0791 1258.83L-54.1502 1256.57L-55.1907 1254.31L-56.2009 1252.04L-57.1814 1249.78L-58.1326 1247.53L-59.0549 1245.27L-59.9487 1243.02L-60.8146 1240.78L-61.6531 1238.53L-62.4645 1236.3L-63.2494 1234.07L-64.0083 1231.85L-64.7417 1229.63L-65.4501 1227.42L-66.134 1225.22L-66.7939 1223.03L-67.4303 1220.85L-68.0436 1218.67L-68.6346 1216.51L-69.2035 1214.35L-69.751 1212.21L-70.2775 1210.07L-70.7836 1207.95L-71.2698 1205.84L-71.7366 1203.74L-72.1844 1201.65L-72.6138 1199.57L-73.0252 1197.5L-73.4193 1195.45L-73.7963 1193.41L-74.1569 1191.38L-74.5015 1189.36L-74.8306 1187.36L-75.1446 1185.37L-75.4441 1183.39L-75.7294 1181.42L-76.001 1179.47L-76.2594 1177.53L-76.5049 1175.6L-76.7382 1173.68L-76.9594 1171.78L-77.1691 1169.89L-77.3678 1168.01L-77.5557 1166.15L-77.7333 1164.29L-77.9009 1162.45L-78.059 1160.63L-78.208 1158.81L-78.3481 1157.01L-78.4798 1155.21L-78.6034 1153.43L-78.7193 1151.67L-78.8277 1149.91L-78.929 1148.17L-79.0236 1146.43L-79.1118 1144.71L-79.1938 1143L-79.2699 1141.3L-79.3405 1139.61L-79.4058 1137.93L-79.4661 1136.26L-79.5216 1134.6L-79.5727 1132.95L-79.6196 1131.31L-79.6625 1129.68L-79.7016 1128.06L-79.7372 1126.44L-79.7695 1124.84L-79.7987 1123.24L-79.8251 1121.65L-79.8487 1120.07L-79.8699 1118.5L-79.8887 1116.94L-79.9054 1115.38L-79.9202 1113.83L-79.9331 1112.28L-79.9444 1110.75L-79.9543 1109.21L-79.9627 1107.69L-79.9699 1106.17L-79.976 1104.65L-79.9811 1103.14L-79.9854 1101.64L-79.9889 1100.13L-79.9917 1098.64L-79.994 1097.14L-79.9957 1095.65L-79.9971 1094.17L-79.9981 1092.68L-79.9988 1091.2L-79.9993 1089.72L-79.9996 1088.25L-79.9998 1086.77L-79.9999 1085.3L-80 1083.83L-80 1082.36L-80 1080.89L-80 1079.42L-80 1077.95L-80 1076.48L-80 1075L-79.9999 1073.53L-79.9998 1072.06L-79.9997 1070.59L-79.9994 1069.11L-79.999 1067.63L-79.9983 1066.15L-79.9974 1064.67L-79.9962 1063.18L-79.9946 1061.69L-79.9925 1060.2L-79.9899 1058.71L-79.9866 1057.21L-79.9826 1055.7L-79.9778 1054.19L-79.972 1052.68L-79.9651 1051.16L-79.9571 1049.64L-79.9477 1048.11L-79.9369 1046.57L-79.9245 1045.03L-79.9103 1043.48L-79.8943 1041.92L-79.8761 1040.36L-79.8557 1038.79L-79.8329 1037.21L-79.8074 1035.63L-79.7791 1034.03L-79.7478 1032.43L-79.7133 1030.82L-79.6753 1029.2L-79.6337 1027.57L-79.5881 1025.94L-79.5384 1024.29L-79.4843 1022.63L-79.4255 1020.97L-79.3618 1019.29L-79.293 1017.6L-79.2186 1015.91L-79.1385 1014.2L-79.0524 1012.48L-78.9599 1010.75L-78.8607 1009.01L-78.7546 1007.26L-78.6411 1005.49L-78.52 1003.72L-78.391 1001.93L-78.2536 1000.13L-78.1075 998.317L-77.9523 996.494L-77.7877 994.657L-77.6133 992.809L-77.4288 990.948L-77.2336 989.074L-77.0275 987.188L-76.8099 985.289L-76.5805 983.377L-76.339 981.453L-76.0847 979.516L-75.8173 977.566L-75.5365 975.603L-75.2416 973.628L-74.9322 971.64L-74.608 969.64L-74.2684 967.627L-73.9129 965.601L-73.5412 963.564L-73.1526 961.514L-72.7468 959.452L-72.3231 957.378L-71.8812 955.292L-71.4206 953.195L-70.9406 951.086L-70.4409 948.967L-69.921 946.836L-69.3802 944.695L-68.8181 942.543L-68.2343 940.382L-67.6281 938.211L-66.9991 936.031L-66.3468 933.841L-65.6706 931.643L-64.9701 929.437L-64.2447 927.224L-63.494 925.003L-62.7174 922.775L-61.9144 920.541L-61.0847 918.301L-60.2276 916.057L-59.3426 913.807L-58.4295 911.554L-57.4876 909.298L-56.5165 907.038L-55.5157 904.777L-54.4849 902.515L-53.4237 900.251L-52.3315 897.989L-51.208 895.727L-50.0528 893.467L-48.8656 891.209L-47.646 888.955L-46.3936 886.705L-45.1081 884.461L-43.7893 882.223L-42.4368 879.991L-41.0504 877.768L-39.6298 875.554L-38.1748 873.35L-36.6852 871.157L-35.1609 868.976L-33.6016 866.808L-32.0073 864.655L-30.3779 862.517L-28.7133 860.396L-27.0133 858.292L-25.2782 856.207L-23.5077 854.142L-21.702 852.098L-19.8612 850.076L-17.9854 848.079L-16.0746 846.105L-14.1291 844.158L-12.1491 842.238L-10.1348 840.347L-8.08653 838.485L-6.00454 836.655L-3.8892 834.856L-1.74089 833.091L0.43998 831.361L2.65294 829.666L4.89751 828.009L7.17315 826.39L9.47931 824.811L11.8154 823.272L14.1807 821.776L16.5747 820.322L18.9965 818.913L21.4455 817.55L23.9208 816.233L26.4216 814.964L28.9471 813.744L31.4964 812.574L34.0686 811.455L36.6627 810.387L39.2776 809.373L41.9125 808.412L44.5662 807.507L47.2377 806.657L49.9258 805.863L52.6294 805.127L55.3474 804.449L58.0785 803.83L60.8216 803.27L63.5754 802.77L66.3386 802.332L69.11 801.954L71.8883 801.638L74.6722 801.385L77.4603 801.194L80.2514 801.066L83.044 801.001L85.8368 801L88.6285 801.063L91.4177 801.189L94.203 801.379L96.983 801.634L99.7564 801.952L102.522 802.334L105.278 802.78L108.023 803.29L110.756 803.862L113.476 804.498L116.181 805.197L118.87 805.957L121.541 806.78L124.194 807.663L126.827 808.608L129.439 809.613L132.028 810.677L134.594 811.799L137.135 812.98L139.65 814.218L142.138 815.512L144.598 816.862L147.028 818.266L149.429 819.724L151.798 821.234L154.135 822.795L156.439 824.407L158.709 826.068L160.944 827.777L163.144 829.533L165.307 831.335L167.434 833.181L169.522 835.07L171.572 837.001L173.583 838.972L175.555 840.983L177.487 843.031L179.378 845.116L181.228 847.236L183.037 849.389L184.804 851.575L186.529 853.792L188.212 856.038L189.853 858.313L191.451 860.614L193.007 862.94L194.519 865.29L195.989 867.662L197.417 870.055L198.801 872.468L200.143 874.9L201.442 877.348L202.698 879.811L203.913 882.289L205.085 884.779L206.216 887.281L207.305 889.794L208.354 892.315L209.361 894.844L210.328 897.379L211.255 899.92L212.143 902.464L212.991 905.012L213.801 907.561L214.573 910.111L215.308 912.66L216.005 915.209L216.666 917.754L217.292 920.296L217.882 922.834L218.438 925.366L218.96 927.892L219.449 930.411L219.906 932.922L220.331 935.424L220.725 937.917L221.088 940.399L221.422 942.87L221.727 945.33L222.004 947.777L222.254 950.211L222.477 952.632L222.674 955.039L222.847 957.431L222.995 959.808L223.119 962.169L223.221 964.514L223.301 966.843L223.36 969.155L223.398 971.451L223.417 973.728L223.417 975.988L223.399 978.23L223.363 980.454L223.311 982.66L223.244 984.847L223.161 987.015L223.063 989.164L222.953 991.295L222.829 993.406L222.693 995.499L222.546 997.572L222.388 999.626L222.22 1001.66L222.043 1003.68L221.857 1005.67L221.663 1007.65L221.461 1009.61L221.254 1011.55L221.04 1013.48L220.82 1015.38L220.596 1017.27L220.368 1019.13L220.137 1020.98L219.902 1022.82L219.666 1024.63L219.427 1026.43L219.188 1028.21L218.948 1029.97L218.707 1031.72L218.468 1033.46L218.229 1035.17L217.993 1036.87L217.758 1038.56L217.526 1040.23L217.297 1041.89L217.072 1043.54L216.851 1045.17L216.635 1046.79L216.424 1048.4L216.219 1049.99L216.02 1051.57L215.827 1053.15L215.642 1054.71L215.464 1056.26L215.294 1057.8L215.132 1059.33L214.98 1060.86L214.836 1062.38L214.703 1063.89L214.579 1065.39L214.467 1066.89L214.365 1068.38L214.275 1069.86L214.197 1071.35L214.131 1072.82L214.078 1074.3L214.039 1075.77L214.013 1077.24L214.001 1078.71L214 1079.18Z" fill="#4922D9" fill-opacity="0.5"/>
</g>
<g filter="url(#filter7_f_344_593)">
<path fill-rule="evenodd" clip-rule="evenodd" d="M1227 1099.72L1200.02 1101.9L1177.31 1103.64L1158.08 1105.02L1141.7 1106.13L1127.67 1107.03L1115.6 1107.77L1105.17 1108.39L1096.12 1108.9L1088.26 1109.35L1081.39 1109.73L1075.39 1110.08L1070.14 1110.4L1065.53 1110.69L1061.49 1110.98L1057.96 1111.26L1054.87 1111.54L1052.17 1111.83L1049.83 1112.13L1047.82 1112.45L1046.1 1112.79L1044.65 1113.15L1043.46 1113.55L1042.5 1113.97L1041.77 1114.44L1041.26 1114.95L1040.96 1115.51L1040.87 1116.12L1040.98 1116.79L1041.3 1117.53L1041.84 1118.35L1042.6 1119.25L1043.58 1120.25L1044.81 1121.37L1046.3 1122.6L1048.07 1123.98L1050.14 1125.52L1052.55 1127.24L1055.33 1129.17L1058.52 1131.34L1062.18 1133.79L1066.36 1136.57L1071.15 1139.72L1076.63 1143.31L1082.9 1147.43L1090.11 1152.15L1098.39 1157.61L1107.96 1163.94L1119.05 1171.32L1131.94 1179.96L1147.02 1190.15L1164.73 1202.23L1185.67 1216.65L1177.98 1214.87L1156.13 1204.41L1137.72 1195.5L1122.09 1187.85L1108.77 1181.27L1097.34 1175.59L1087.5 1170.65L1078.99 1166.37L1071.59 1162.63L1065.15 1159.37L1059.51 1156.53L1054.58 1154.06L1050.25 1151.9L1046.44 1150.03L1043.08 1148.42L1040.13 1147.04L1037.53 1145.87L1035.25 1144.89L1033.25 1144.09L1031.51 1143.47L1030 1143L1028.69 1142.69L1027.59 1142.53L1026.66 1142.51L1025.91 1142.65L1025.31 1142.92L1024.87 1143.35L1024.58 1143.94L1024.44 1144.68L1024.44 1145.59L1024.59 1146.69L1024.89 1147.97L1025.34 1149.47L1025.95 1151.2L1026.74 1153.18L1027.7 1155.44L1028.85 1158.01L1030.21 1160.94L1031.8 1164.26L1033.65 1168.04L1035.78 1172.33L1038.22 1177.22L1041.03 1182.8L1044.25 1189.18L1047.94 1196.51L1052.17 1204.94L1057.04 1214.68L1062.66 1225.98L1069.16 1239.15L1076.7 1254.6L1085.49 1272.79L1095.8 1294.37L1099.75 1305.78L1085.13 1284.53L1072.89 1266.56L1062.58 1251.27L1053.84 1238.2L1046.38 1226.97L1039.98 1217.28L1034.47 1208.89L1029.69 1201.6L1025.54 1195.24L1021.91 1189.7L1018.73 1184.86L1015.93 1180.62L1013.45 1176.92L1011.26 1173.69L1009.32 1170.87L1007.58 1168.43L1006.04 1166.33L1004.65 1164.54L1003.4 1163.03L1002.28 1161.78L1001.28 1160.77L1000.36 1160L999.541 1159.44L998.795 1159.1L998.118 1158.97L997.503 1159.05L996.942 1159.33L996.431 1159.83L995.963 1160.54L995.534 1161.48L995.139 1162.65L994.773 1164.08L994.433 1165.78L994.114 1167.77L993.811 1170.09L993.521 1172.76L993.238 1175.82L992.958 1179.32L992.673 1183.32L992.378 1187.89L992.064 1193.09L991.721 1199.04L991.339 1205.84L990.901 1213.63L990.391 1222.58L989.786 1232.9L989.058 1244.85L988.171 1258.72L987.08 1274.92L985.723 1293.93L984.025 1316.36L981.882 1343L979.661 1320.3L977.9 1297.25L976.495 1277.75L975.365 1261.14L974.449 1246.92L973.699 1234.69L973.076 1224.13L972.553 1214.97L972.105 1207.01L971.714 1200.06L971.366 1193.99L971.048 1188.67L970.751 1184.01L970.465 1179.92L970.184 1176.35L969.902 1173.22L969.614 1170.49L969.313 1168.12L968.997 1166.08L968.661 1164.33L968.299 1162.86L967.909 1161.65L967.486 1160.67L967.024 1159.92L966.52 1159.4L965.968 1159.08L965.362 1158.97L964.695 1159.07L963.961 1159.37L963.15 1159.89L962.254 1160.63L961.261 1161.6L960.161 1162.81L958.937 1164.28L957.574 1166.03L956.052 1168.08L954.349 1170.46L952.439 1173.21L950.29 1176.37L947.865 1180L945.121 1184.14L942.004 1188.88L938.452 1194.31L934.388 1200.52L929.719 1207.66L924.331 1215.86L918.086 1225.33L910.809 1236.3L902.286 1249.05L892.245 1263.96L880.343 1281.46L866.142 1302.15L865.771 1298.16L876.351 1275.98L885.369 1257.29L893.096 1241.45L899.746 1227.94L905.492 1216.36L910.474 1206.39L914.804 1197.77L918.575 1190.28L921.864 1183.76L924.733 1178.06L927.234 1173.07L929.411 1168.68L931.3 1164.83L932.93 1161.44L934.327 1158.45L935.512 1155.83L936.502 1153.52L937.31 1151.5L937.949 1149.73L938.426 1148.2L938.749 1146.88L938.923 1145.75L938.949 1144.81L938.83 1144.04L938.563 1143.44L938.148 1142.98L937.578 1142.68L936.848 1142.53L935.95 1142.52L934.872 1142.66L933.602 1142.94L932.124 1143.38L930.418 1143.98L928.461 1144.75L926.227 1145.7L923.683 1146.84L920.791 1148.18L917.505 1149.76L913.772 1151.58L909.527 1153.69L904.693 1156.11L899.179 1158.89L892.872 1162.08L885.639 1165.74L877.315 1169.93L867.7 1174.75L856.547 1180.31L843.549 1186.74L828.323 1194.2L810.39 1202.9L789.137 1213.09L774.027 1219.2L795.545 1204.36L813.731 1191.93L829.192 1181.47L842.408 1172.6L853.76 1165.04L863.551 1158.56L872.029 1152.97L879.394 1148.14L885.807 1143.93L891.404 1140.26L896.294 1137.04L900.57 1134.21L904.308 1131.71L907.571 1129.5L910.412 1127.53L912.877 1125.78L915.001 1124.21L916.816 1122.81L918.347 1121.55L919.616 1120.42L920.64 1119.41L921.432 1118.49L922.003 1117.66L922.359 1116.9L922.507 1116.22L922.447 1115.6L922.18 1115.03L921.703 1114.52L921.009 1114.05L920.09 1113.61L918.935 1113.22L917.529 1112.85L915.854 1112.5L913.887 1112.18L911.602 1111.88L908.966 1111.59L905.94 1111.3L902.478 1111.02L898.525 1110.74L894.015 1110.45L888.87 1110.13L882.995 1109.79L876.277 1109.41L868.58 1108.98L859.737 1108.48L849.545 1107.88L837.756 1107.16L824.063 1106.29L808.085 1105.21L789.345 1103.88L767.239 1102.21L741 1100.1L759.371 1097.85L782.701 1096.05L802.442 1094.62L819.242 1093.47L833.617 1092.54L845.976 1091.77L856.647 1091.14L865.896 1090.61L873.939 1090.16L880.953 1089.76L887.083 1089.41L892.45 1089.09L897.153 1088.79L901.275 1088.5L904.887 1088.22L908.047 1087.94L910.802 1087.65L913.195 1087.35L915.26 1087.04L917.026 1086.7L918.515 1086.34L919.748 1085.95L920.741 1085.53L921.505 1085.07L922.051 1084.57L922.385 1084.02L922.51 1083.42L922.429 1082.76L922.139 1082.03L921.637 1081.22L920.917 1080.33L919.968 1079.35L918.779 1078.26L917.333 1077.04L915.611 1075.69L913.589 1074.18L911.236 1072.49L908.52 1070.59L905.396 1068.46L901.816 1066.06L897.719 1063.34L893.034 1060.25L887.673 1056.73L881.533 1052.7L874.488 1048.08L866.384 1042.75L857.035 1036.57L846.21 1029.38L833.626 1020.95L818.927 1011.03L801.668 999.276L781.286 985.259L781.549 982.738L804.014 993.469L822.931 1002.61L838.961 1010.44L852.623 1017.18L864.328 1023L874.403 1028.04L883.115 1032.43L890.676 1036.25L897.262 1039.57L903.016 1042.48L908.055 1045.01L912.479 1047.21L916.367 1049.13L919.789 1050.78L922.802 1052.2L925.452 1053.4L927.781 1054.4L929.823 1055.23L931.606 1055.88L933.155 1056.37L934.489 1056.71L935.627 1056.89L936.581 1056.93L937.363 1056.82L937.983 1056.57L938.447 1056.16L938.761 1055.6L938.927 1054.89L938.947 1054L938.821 1052.94L938.545 1051.68L938.118 1050.22L937.531 1048.53L936.778 1046.59L935.848 1044.38L934.727 1041.86L933.399 1038.99L931.846 1035.73L930.042 1032.03L927.961 1027.83L925.567 1023.04L922.821 1017.57L919.672 1011.33L916.062 1004.17L911.919 995.925L907.156 986.41L901.667 975.376L895.322 962.522L887.959 947.471L879.379 929.752L869.329 908.764L861.048 889.921L876.093 911.763L888.675 930.212L899.267 945.891L908.241 959.287L915.889 970.788L922.443 980.707L928.087 989.292L932.971 996.748L937.217 1003.24L940.923 1008.9L944.171 1013.85L947.028 1018.18L949.549 1021.96L951.782 1025.27L953.765 1028.14L955.53 1030.64L957.107 1032.79L958.519 1034.63L959.785 1036.19L960.923 1037.48L961.949 1038.52L962.874 1039.33L963.711 1039.92L964.469 1040.3L965.156 1040.46L965.781 1040.42L966.35 1040.17L966.869 1039.7L967.343 1039.03L967.778 1038.13L968.178 1036.99L968.548 1035.6L968.892 1033.95L969.215 1032L969.519 1029.74L969.811 1027.13L970.095 1024.13L970.375 1020.7L970.659 1016.79L970.952 1012.32L971.262 1007.22L971.599 1001.4L971.975 994.748L972.403 987.124L972.9 978.368L973.488 968.28L974.194 956.615L975.053 943.07L976.108 927.271L977.418 908.748L979.055 886.908L981.119 861L983.396 875.091L985.224 898.769L986.68 918.793L987.848 935.829L988.795 950.399L989.569 962.92L990.21 973.728L990.747 983.094L991.206 991.236L991.605 998.334L991.959 1004.54L992.281 1009.97L992.581 1014.73L992.868 1018.9L993.149 1022.55L993.43 1025.75L993.718 1028.54L994.016 1030.96L994.329 1033.06L994.662 1034.85L995.019 1036.36L995.404 1037.61L995.822 1038.63L996.277 1039.41L996.774 1039.97L997.318 1040.32L997.916 1040.47L998.572 1040.4L999.295 1040.13L1000.09 1039.64L1000.98 1038.94L1001.95 1038.01L1003.03 1036.84L1004.24 1035.41L1005.58 1033.71L1007.07 1031.71L1008.74 1029.38L1010.62 1026.69L1012.73 1023.6L1015.11 1020.05L1017.8 1015.99L1020.85 1011.35L1024.33 1006.04L1028.31 999.961L1032.87 992.984L1038.13 984.962L1044.23 975.708L1051.33 964.998L1059.64 952.55L1069.42 938.016L1081 920.959L1094.8 900.826L1099.46 897.366L1088.6 920.175L1079.35 939.372L1071.44 955.631L1064.63 969.482L1058.75 981.344L1053.65 991.551L1049.22 1000.37L1045.37 1008.03L1042.01 1014.7L1039.08 1020.52L1036.52 1025.62L1034.29 1030.09L1032.36 1034.03L1030.69 1037.49L1029.26 1040.53L1028.04 1043.21L1027.02 1045.57L1026.18 1047.64L1025.52 1049.44L1025.02 1051.01L1024.67 1052.36L1024.47 1053.52L1024.42 1054.49L1024.52 1055.28L1024.76 1055.92L1025.15 1056.39L1025.7 1056.72L1026.4 1056.9L1027.27 1056.93L1028.32 1056.81L1029.56 1056.55L1031 1056.13L1032.67 1055.56L1034.59 1054.82L1036.78 1053.9L1039.27 1052.8L1042.1 1051.48L1045.32 1049.95L1048.98 1048.16L1053.14 1046.1L1057.87 1043.73L1063.27 1041.01L1069.44 1037.89L1076.52 1034.32L1084.66 1030.22L1094.05 1025.5L1104.94 1020.07L1117.62 1013.79L1132.46 1006.5L1149.93 998.017L1170.6 988.084L1193.13 977.607L1171.02 992.892L1152.35 1005.67L1136.49 1016.42L1122.94 1025.52L1111.31 1033.27L1101.29 1039.91L1092.62 1045.63L1085.09 1050.58L1078.53 1054.87L1072.82 1058.63L1067.82 1061.91L1063.45 1064.8L1059.63 1067.35L1056.3 1069.61L1053.39 1071.61L1050.87 1073.39L1048.69 1074.99L1046.83 1076.41L1045.26 1077.69L1043.95 1078.84L1042.89 1079.88L1042.06 1080.81L1041.45 1081.66L1041.06 1082.42L1040.88 1083.11L1040.91 1083.74L1041.14 1084.32L1041.58 1084.84L1042.24 1085.32L1043.13 1085.76L1044.24 1086.16L1045.61 1086.53L1047.24 1086.88L1049.16 1087.2L1051.39 1087.51L1053.97 1087.8L1056.93 1088.09L1060.32 1088.37L1064.19 1088.65L1068.6 1088.94L1073.64 1089.25L1079.39 1089.59L1085.97 1089.96L1093.5 1090.38L1102.15 1090.88L1112.11 1091.46L1123.63 1092.15L1136.99 1093L1152.58 1094.04L1170.84 1095.33L1192.36 1096.94L1217.88 1098.97L1227 1099.72Z" fill="#4922D9" fill-opacity="0.5"/>
</g>
<defs>
<filter id="filter0_f_344_593" x="270.182" y="-117.783" width="867.683" height="867.404" filterUnits="userSpaceOnUse" color-interpolation-filters="sRGB">
<feFlood flood-opacity="0" result="BackgroundImageFix"/>
<feBlend mode="normal" in="SourceGraphic" in2="BackgroundImageFix" result="shape"/>
<feGaussianBlur stdDeviation="117.7" result="effect1_foregroundBlur_344_593"/>
</filter>
<filter id="filter1_f_344_593" x="705.35" y="-381.66" width="779.391" height="738.072" filterUnits="userSpaceOnUse" color-interpolation-filters="sRGB">
<feFlood flood-opacity="0" result="BackgroundImageFix"/>
<feBlend mode="normal" in="SourceGraphic" in2="BackgroundImageFix" result="shape"/>
<feGaussianBlur stdDeviation="117.7" result="effect1_foregroundBlur_344_593"/>
</filter>
<filter id="filter2_f_344_593" x="544.142" y="-306.965" width="764.597" height="783.88" filterUnits="userSpaceOnUse" color-interpolation-filters="sRGB">
<feFlood flood-opacity="0" result="BackgroundImageFix"/>
<feBlend mode="normal" in="SourceGraphic" in2="BackgroundImageFix" result="shape"/>
<feGaussianBlur stdDeviation="117.7" result="effect1_foregroundBlur_344_593"/>
</filter>
<filter id="filter3_f_344_593" x="654.503" y="-25.7823" width="711.386" height="722.548" filterUnits="userSpaceOnUse" color-interpolation-filters="sRGB">
<feFlood flood-opacity="0" result="BackgroundImageFix"/>
<feBlend mode="normal" in="SourceGraphic" in2="BackgroundImageFix" result="shape"/>
<feGaussianBlur stdDeviation="117.7" result="effect1_foregroundBlur_344_593"/>
</filter>
<filter id="filter4_f_344_593" x="190.6" y="1943.6" width="1854.8" height="1872.8" filterUnits="userSpaceOnUse" color-interpolation-filters="sRGB">
<feFlood flood-opacity="0" result="BackgroundImageFix"/>
<feBlend mode="normal" in="SourceGraphic" in2="BackgroundImageFix" result="shape"/>
<feGaussianBlur stdDeviation="117.7" result="effect1_foregroundBlur_344_593"/>
</filter>
<filter id="filter5_f_344_593" x="-227.4" y="1647.6" width="749.481" height="766.457" filterUnits="userSpaceOnUse" color-interpolation-filters="sRGB">
<feFlood flood-opacity="0" result="BackgroundImageFix"/>
<feBlend mode="normal" in="SourceGraphic" in2="BackgroundImageFix" result="shape"/>
<feGaussianBlur stdDeviation="117.7" result="effect1_foregroundBlur_344_593"/>
</filter>
<filter id="filter6_f_344_593" x="-315.4" y="565.6" width="774.219" height="1027.17" filterUnits="userSpaceOnUse" color-interpolation-filters="sRGB">
<feFlood flood-opacity="0" result="BackgroundImageFix"/>
<feBlend mode="normal" in="SourceGraphic" in2="BackgroundImageFix" result="shape"/>
<feGaussianBlur stdDeviation="117.7" result="effect1_foregroundBlur_344_593"/>
</filter>
<filter id="filter7_f_344_593" x="505.6" y="625.6" width="956.8" height="952.8" filterUnits="userSpaceOnUse" color-interpolation-filters="sRGB">
<feFlood flood-opacity="0" result="BackgroundImageFix"/>
<feBlend mode="normal" in="SourceGraphic" in2="BackgroundImageFix" result="shape"/>
<feGaussianBlur stdDeviation="117.7" result="effect1_foregroundBlur_344_593"/>
</filter>
</defs>
</svg>
