<svg width="1280" height="832" viewBox="0 0 1280 832" fill="none" xmlns="http://www.w3.org/2000/svg">
<g filter="url(#filter0_f_78_227)">
<path fill-rule="evenodd" clip-rule="evenodd" d="M679.371 764.729L677.678 764.499L675.969 764.309L674.243 764.153L672.501 764.025L670.742 763.92L668.968 763.831L667.18 763.751L665.379 763.676L663.566 763.599L661.744 763.514L659.914 763.416L658.078 763.299L656.24 763.159L654.4 762.989L652.561 762.788L650.727 762.549L648.898 762.271L647.077 761.951L645.267 761.586L643.47 761.175L641.687 760.716L639.919 760.21L638.169 759.656L636.437 759.054L634.725 758.406L633.032 757.712L631.361 756.972L629.712 756.188L628.086 755.359L626.484 754.488L624.906 753.576L623.352 752.625L621.821 751.637L620.312 750.616L618.825 749.564L617.358 748.484L615.91 747.38L614.479 746.254L613.064 745.109L611.661 743.949L610.269 742.777L608.886 741.595L607.509 740.405L606.137 739.212L604.765 738.016L603.393 736.821L602.017 735.628L600.635 734.439L599.244 733.255L597.843 732.078L596.429 730.909L595 729.749L593.553 728.598L592.088 727.457L590.602 726.325L589.093 725.203L587.561 724.09L586.005 722.986L584.423 721.889L582.814 720.8L581.179 719.716L579.517 718.637L577.829 717.56L576.114 716.484L574.373 715.407L572.609 714.328L570.821 713.243L569.011 712.152L567.181 711.051L565.335 709.938L563.473 708.811L561.599 707.667L559.717 706.504L557.829 705.32L555.94 704.111L554.054 702.876L552.175 701.612L550.307 700.317L548.456 698.99L546.627 697.626L544.825 696.226L543.056 694.787L541.326 693.308L539.64 691.787L538.005 690.223L536.426 688.615L534.911 686.963L533.464 685.266L532.093 683.524L530.803 681.737L529.601 679.905L528.493 678.029L527.484 676.11L526.579 674.15L525.785 672.149L525.105 670.11L524.546 668.035L524.11 665.926L523.802 663.786L523.625 661.618L523.582 659.425L523.674 657.21L523.904 654.977L524.273 652.73L524.78 650.472L525.425 648.208L526.207 645.942L527.124 643.677L528.174 641.419L529.354 639.171L530.658 636.937L532.082 634.722L533.621 632.529L535.269 630.363L537.019 628.226L538.862 626.121L540.792 624.053L542.801 622.023L544.878 620.035L547.016 618.089L549.206 616.189L551.439 614.334L553.705 612.527L555.996 610.768L558.304 609.058L560.622 607.395L562.943 605.781L565.259 604.214L567.563 602.694L569.849 601.219L572.108 599.788L574.332 598.4L576.515 597.053L578.648 595.743L580.723 594.469L582.733 593.227L584.67 592.014L586.528 590.827L588.299 589.661L589.977 588.513L591.556 587.379L593.031 586.254L594.396 585.134L595.647 584.013L596.781 582.888L597.793 581.753L598.682 580.603L599.447 579.435L600.085 578.242L600.597 577.022L600.983 575.768L601.245 574.478L601.385 573.146L601.405 571.77L601.31 570.347L601.103 568.872L600.79 567.344L600.377 565.761L599.869 564.12L599.274 562.421L598.599 560.663L597.852 558.844L597.042 556.967L596.177 555.031L595.267 553.038L594.32 550.989L593.347 548.886L592.356 546.733L591.359 544.533L590.364 542.29L589.382 540.006L588.421 537.689L587.492 535.341L586.603 532.969L585.763 530.577L584.981 528.173L584.264 525.762L583.62 523.35L583.056 520.943L582.579 518.549L582.194 516.174L581.906 513.823L581.72 511.504L581.64 509.222L581.668 506.985L581.808 504.797L582.061 502.664L582.429 500.591L582.91 498.584L583.506 496.647L584.214 494.783L585.034 492.997L585.963 491.292L586.998 489.669L588.135 488.132L589.371 486.681L590.702 485.318L592.122 484.043L593.626 482.855L595.209 481.755L596.865 480.74L598.588 479.809L600.372 478.96L602.211 478.191L604.098 477.497L606.028 476.875L607.994 476.322L609.99 475.834L612.011 475.405L614.051 475.032L616.104 474.711L618.166 474.435L620.232 474.2L622.298 474.002L624.359 473.837L626.412 473.698L628.455 473.583L630.483 473.487L632.496 473.406L634.491 473.338L636.466 473.278L638.421 473.224L640.355 473.174L642.267 473.126L644.157 473.078L646.026 473.029L647.873 472.977L649.698 472.921L651.502 472.86L653.285 472.791L655.047 472.713L656.787 472.623L658.506 472.52L660.203 472.4L661.88 472.261L663.535 472.1L665.168 471.913L666.781 471.697L668.373 471.449L669.944 471.165L671.495 470.843L673.028 470.477L674.541 470.065L676.037 469.604L677.517 469.09L678.981 468.52L680.432 467.891L681.87 467.201L683.299 466.448L684.719 465.63L686.133 464.744L687.543 463.791L688.951 462.768L690.361 461.677L691.774 460.517L693.194 459.289L694.622 457.995L696.062 456.635L697.517 455.213L698.989 453.731L700.48 452.193L701.994 450.602L703.532 448.963L705.098 447.28L706.692 445.56L708.318 443.807L709.976 442.028L711.669 440.23L713.397 438.418L715.162 436.602L716.964 434.787L718.804 432.981L720.681 431.193L722.597 429.43L724.549 427.7L726.537 426.012L728.561 424.373L730.618 422.791L732.707 421.275L734.825 419.831L736.97 418.468L739.14 417.193L741.331 416.013L743.54 414.934L745.764 413.962L747.999 413.105L750.24 412.366L752.485 411.752L754.729 411.266L756.966 410.913L759.194 410.696L761.407 410.617L763.601 410.68L765.771 410.886L767.914 411.236L770.023 411.731L772.096 412.37L774.128 413.153L776.114 414.079L778.052 415.146L779.936 416.351L781.764 417.693L783.532 419.167L785.237 420.769L786.878 422.495L788.45 424.341L789.952 426.3L791.382 428.368L792.74 430.538L794.023 432.805L795.231 435.16L796.363 437.598L797.421 440.112L798.403 442.694L799.311 445.336L800.146 448.032L800.909 450.773L801.603 453.552L802.229 456.362L802.789 459.194L803.287 462.042L803.725 464.898L804.108 467.755L804.438 470.605L804.721 473.44L804.96 476.254L805.162 479.037L805.332 481.783L805.478 484.482L805.605 487.126L805.722 489.707L805.836 492.218L805.956 494.65L806.089 496.998L806.244 499.255L806.429 501.415L806.653 503.473L806.923 505.425L807.248 507.267L807.636 508.998L808.093 510.613L808.627 512.114L809.244 513.499L809.951 514.768L810.753 515.924L811.655 516.967L812.661 517.902L813.776 518.73L815.002 519.457L816.342 520.086L817.798 520.624L819.37 521.076L821.059 521.447L822.864 521.746L824.784 521.979L826.818 522.153L828.962 522.276L831.213 522.356L833.567 522.401L836.02 522.419L838.565 522.418L841.198 522.406L843.91 522.392L846.696 522.383L849.547 522.388L852.456 522.414L855.413 522.468L858.41 522.557L861.437 522.689L864.485 522.869L867.544 523.104L870.604 523.4L873.654 523.761L876.685 524.192L879.686 524.697L882.647 525.28L885.557 525.945L888.407 526.693L891.187 527.527L893.887 528.448L896.498 529.458L899.01 530.556L901.416 531.743L903.707 533.018L905.875 534.38L907.913 535.827L909.815 537.358L911.574 538.969L913.185 540.658L914.644 542.421L915.945 544.255L917.087 546.155L918.065 548.118L918.878 550.139L919.525 552.212L920.005 554.333L920.318 556.497L920.465 558.698L920.447 560.93L920.267 563.19L919.927 565.47L919.431 567.766L918.783 570.072L917.987 572.383L917.05 574.694L915.975 577L914.77 579.296L913.441 581.577L911.994 583.84L910.438 586.08L908.779 588.294L907.024 590.477L905.182 592.627L903.26 594.742L901.266 596.817L899.207 598.852L897.091 600.843L894.926 602.79L892.719 604.692L890.477 606.547L888.206 608.354L885.913 610.113L883.606 611.823L881.291 613.486L878.978 615.101L876.675 616.668L874.391 618.19L872.133 619.667L869.909 621.1L867.726 622.493L865.59 623.847L863.507 625.164L861.482 626.446L859.52 627.697L857.624 628.919L855.798 630.115L854.044 631.288L852.364 632.44L850.76 633.574L849.231 634.693L847.778 635.8L846.401 636.897L845.099 637.987L843.869 639.071L842.71 640.152L841.62 641.231L840.596 642.311L839.634 643.393L838.731 644.479L837.885 645.568L837.09 646.664L836.342 647.765L835.639 648.872L834.975 649.987L834.346 651.108L833.749 652.236L833.178 653.371L832.631 654.512L832.102 655.659L831.588 656.81L831.086 657.967L830.591 659.126L830.101 660.289L829.612 661.453L829.122 662.617L828.629 663.782L828.129 664.945L827.621 666.106L827.104 667.265L826.575 668.419L826.034 669.569L825.481 670.714L824.914 671.854L824.334 672.987L823.74 674.115L823.133 675.237L822.514 676.354L821.884 677.465L821.243 678.571L820.594 679.674L819.937 680.775L819.274 681.873L818.607 682.973L817.939 684.074L817.27 685.178L816.604 686.289L815.943 687.409L815.288 688.539L814.642 689.683L814.007 690.843L813.385 692.023L812.778 693.226L812.188 694.454L811.617 695.712L811.066 697.003L810.537 698.33L810.03 699.696L809.547 701.105L809.089 702.559L808.654 704.063L808.245 705.62L807.86 707.231L807.499 708.899L807.161 710.627L806.844 712.417L806.548 714.27L806.269 716.188L806.007 718.171L805.758 720.22L805.52 722.334L805.289 724.514L805.062 726.757L804.835 729.062L804.604 731.427L804.365 733.849L804.114 736.325L803.846 738.85L803.556 741.419L803.241 744.028L802.895 746.67L802.514 749.34L802.093 752.031L801.628 754.736L801.116 757.449L800.554 760.163L799.938 762.872L799.265 765.569L798.533 768.246L797.738 770.894L796.878 773.507L795.952 776.075L794.957 778.59L793.892 781.045L792.756 783.43L791.549 785.739L790.27 787.963L788.919 790.094L787.498 792.125L786.007 794.05L784.448 795.861L782.822 797.554L781.131 799.122L779.38 800.56L777.569 801.865L775.704 803.033L773.786 804.06L771.82 804.944L769.811 805.685L767.761 806.28L765.677 806.731L763.561 807.036L761.419 807.199L759.255 807.221L757.075 807.104L754.882 806.853L752.681 806.472L750.477 805.964L748.273 805.336L746.075 804.594L743.885 803.744L741.708 802.793L739.547 801.749L737.406 800.619L735.286 799.412L733.19 798.137L731.122 796.801L729.081 795.413L727.071 793.983L725.091 792.52L723.143 791.032L721.228 789.528L719.344 788.017L717.492 786.508L715.67 785.008L713.879 783.526L712.117 782.068L710.381 780.643L708.67 779.256L706.983 777.914L705.317 776.622L703.668 775.384L702.036 774.206L700.417 773.091L698.808 772.042L697.207 771.061L695.61 770.149L694.016 769.308L692.421 768.538L690.823 767.838L689.219 767.207L687.607 766.643L685.986 766.144L684.353 765.707L682.707 765.328L681.047 765.004L679.371 764.729Z" fill="#4922D9" fill-opacity="0.5"/>
</g>
<g filter="url(#filter1_f_78_227)">
<path fill-rule="evenodd" clip-rule="evenodd" d="M1080.04 365.855L1078.6 365.616L1077.1 365.518L1075.56 365.557L1073.96 365.727L1072.29 366.022L1070.56 366.431L1068.76 366.945L1066.89 367.553L1064.96 368.244L1062.95 369.004L1060.87 369.819L1058.73 370.676L1056.52 371.559L1054.25 372.455L1051.93 373.348L1049.56 374.225L1047.15 375.072L1044.71 375.876L1042.23 376.626L1039.74 377.309L1037.23 377.912L1034.72 378.426L1032.22 378.84L1029.74 379.144L1027.29 379.327L1024.87 379.382L1022.51 379.298L1020.22 379.068L1018 378.687L1015.87 378.15L1013.84 377.453L1011.92 376.595L1010.12 375.577L1008.45 374.399L1006.91 373.066L1005.52 371.581L1004.27 369.952L1003.17 368.186L1002.22 366.29L1001.42 364.276L1000.78 362.152L1000.29 359.931L999.937 357.624L999.728 355.243L999.654 352.802L999.707 350.312L999.878 347.785L1000.16 345.236L1000.53 342.674L1001 340.113L1001.53 337.563L1002.13 335.035L1002.78 332.538L1003.46 330.081L1004.16 327.673L1004.87 325.32L1005.57 323.028L1006.25 320.802L1006.9 318.647L1007.51 316.565L1008.06 314.558L1008.54 312.627L1008.95 310.773L1009.26 308.993L1009.49 307.286L1009.61 305.65L1009.62 304.08L1009.52 302.573L1009.31 301.124L1008.98 299.727L1008.52 298.377L1007.95 297.068L1007.26 295.793L1006.45 294.546L1005.53 293.32L1004.5 292.109L1003.38 290.905L1002.15 289.703L1000.84 288.496L999.448 287.279L997.986 286.046L996.461 284.792L994.885 283.513L993.266 282.204L991.615 280.862L989.942 279.484L988.256 278.067L986.567 276.609L984.885 275.11L983.218 273.568L981.574 271.983L979.962 270.355L978.388 268.684L976.859 266.971L975.381 265.217L973.959 263.425L972.597 261.595L971.299 259.729L970.069 257.829L968.907 255.898L967.817 253.938L966.799 251.95L965.851 249.938L964.973 247.902L964.163 245.844L963.419 243.767L962.739 241.672L962.12 239.56L961.559 237.431L961.056 235.289L960.607 233.132L960.21 230.963L959.863 228.781L959.565 226.588L959.315 224.385L959.111 222.172L958.952 219.949L958.84 217.719L958.772 215.481L958.75 213.236L958.773 210.986L958.843 208.732L958.96 206.476L959.126 204.217L959.342 201.959L959.609 199.704L959.93 197.452L960.305 195.207L960.737 192.97L961.228 190.745L961.78 188.534L962.395 186.34L963.075 184.166L963.822 182.016L964.639 179.893L965.526 177.801L966.487 175.743L967.521 173.723L968.632 171.746L969.819 169.816L971.085 167.936L972.429 166.111L973.853 164.345L975.356 162.642L976.939 161.007L978.6 159.443L980.34 157.955L982.158 156.545L984.051 155.219L986.018 153.979L988.058 152.828L990.167 151.771L992.344 150.808L994.584 149.944L996.886 149.179L999.244 148.516L1001.66 147.957L1004.12 147.503L1006.62 147.154L1009.17 146.91L1011.75 146.773L1014.37 146.74L1017.01 146.812L1019.67 146.988L1022.35 147.264L1025.04 147.641L1027.73 148.114L1030.43 148.682L1033.11 149.339L1035.79 150.081L1038.45 150.904L1041.09 151.801L1043.71 152.765L1046.28 153.789L1048.82 154.862L1051.32 155.974L1053.76 157.115L1056.15 158.275L1058.48 159.446L1060.75 160.619L1062.95 161.787L1065.1 162.941L1067.18 164.077L1069.2 165.186L1071.15 166.265L1073.04 167.306L1074.87 168.307L1076.65 169.262L1078.36 170.167L1080.02 171.02L1081.63 171.816L1083.19 172.554L1084.7 173.231L1086.17 173.846L1087.59 174.397L1088.98 174.884L1090.34 175.306L1091.67 175.664L1092.97 175.957L1094.24 176.189L1095.5 176.358L1096.74 176.469L1097.97 176.523L1099.18 176.522L1100.39 176.469L1101.6 176.368L1102.8 176.222L1104 176.034L1105.21 175.807L1106.42 175.546L1107.64 175.253L1108.87 174.933L1110.1 174.587L1111.35 174.22L1112.61 173.833L1113.89 173.43L1115.18 173.013L1116.48 172.582L1117.81 172.14L1119.15 171.687L1120.51 171.224L1121.88 170.75L1123.28 170.265L1124.71 169.768L1126.15 169.258L1127.62 168.734L1129.12 168.193L1130.64 167.633L1132.2 167.054L1133.79 166.451L1135.41 165.824L1137.07 165.17L1138.78 164.488L1140.52 163.777L1142.31 163.036L1144.16 162.265L1146.05 161.464L1147.99 160.636L1149.99 159.782L1152.04 158.906L1154.15 158.012L1156.31 157.106L1158.53 156.194L1160.81 155.285L1163.13 154.385L1165.5 153.507L1167.91 152.659L1170.36 151.855L1172.83 151.104L1175.33 150.416L1177.85 149.799L1180.37 149.259L1182.9 148.797L1185.44 148.418L1187.98 148.122L1190.51 147.909L1193.04 147.778L1195.56 147.729L1198.07 147.76L1200.57 147.87L1203.06 148.057L1205.53 148.318L1208 148.654L1210.45 149.061L1212.88 149.54L1215.29 150.089L1217.68 150.706L1220.06 151.392L1222.41 152.145L1224.73 152.965L1227.02 153.853L1229.29 154.806L1231.52 155.826L1233.71 156.912L1235.87 158.064L1237.98 159.282L1240.05 160.565L1242.07 161.913L1244.04 163.326L1245.95 164.803L1247.8 166.344L1249.59 167.947L1251.32 169.613L1252.97 171.339L1254.55 173.125L1256.05 174.969L1257.47 176.869L1258.81 178.825L1260.06 180.833L1261.23 182.893L1262.3 185.001L1263.27 187.155L1264.15 189.353L1264.92 191.593L1265.59 193.87L1266.16 196.183L1266.62 198.528L1266.97 200.903L1267.21 203.303L1267.33 205.725L1267.34 208.166L1267.24 210.622L1267.02 213.09L1266.68 215.566L1266.23 218.045L1265.66 220.524L1264.97 223L1264.17 225.467L1263.25 227.923L1262.22 230.362L1261.07 232.782L1259.82 235.178L1258.46 237.547L1256.99 239.884L1255.42 242.186L1253.75 244.45L1251.99 246.671L1250.14 248.846L1248.21 250.973L1246.19 253.048L1244.11 255.068L1241.96 257.032L1239.76 258.937L1237.51 260.781L1235.23 262.564L1232.92 264.284L1230.59 265.941L1228.26 267.536L1225.93 269.069L1223.62 270.542L1221.33 271.956L1219.08 273.314L1216.86 274.617L1214.69 275.869L1212.56 277.072L1210.5 278.229L1208.48 279.343L1206.53 280.418L1204.65 281.456L1202.83 282.461L1201.08 283.437L1199.4 284.387L1197.79 285.315L1196.26 286.224L1194.81 287.117L1193.43 287.999L1192.12 288.873L1190.89 289.741L1189.74 290.608L1188.66 291.477L1187.65 292.35L1186.71 293.23L1185.84 294.12L1185.04 295.022L1184.3 295.939L1183.62 296.872L1182.99 297.823L1182.42 298.793L1181.89 299.784L1181.42 300.796L1180.98 301.83L1180.58 302.887L1180.21 303.967L1179.87 305.07L1179.56 306.197L1179.27 307.347L1179 308.52L1178.74 309.716L1178.5 310.936L1178.27 312.18L1178.05 313.447L1177.84 314.739L1177.63 316.056L1177.43 317.398L1177.23 318.768L1177.04 320.167L1176.86 321.596L1176.68 323.058L1176.5 324.555L1176.33 326.089L1176.17 327.665L1176.02 329.284L1175.88 330.951L1175.74 332.668L1175.61 334.439L1175.5 336.268L1175.39 338.157L1175.29 340.11L1175.19 342.129L1175.1 344.216L1175.01 346.372L1174.92 348.598L1174.83 350.894L1174.73 353.258L1174.61 355.688L1174.47 358.181L1174.31 360.731L1174.11 363.332L1173.88 365.977L1173.6 368.657L1173.26 371.361L1172.87 374.078L1172.4 376.795L1171.87 379.502L1171.25 382.187L1170.56 384.839L1169.78 387.449L1168.91 390.002L1167.95 392.489L1166.9 394.895L1165.76 397.209L1164.52 399.417L1163.19 401.507L1161.76 403.468L1160.24 405.289L1158.64 406.958L1156.95 408.468L1155.18 409.808L1153.33 410.973L1151.41 411.956L1149.43 412.751L1147.39 413.356L1145.29 413.769L1143.16 413.987L1140.99 414.013L1138.79 413.847L1136.57 413.493L1134.35 412.956L1132.11 412.241L1129.88 411.356L1127.66 410.308L1125.46 409.107L1123.29 407.764L1121.14 406.29L1119.03 404.696L1116.97 402.995L1114.95 401.201L1112.97 399.329L1111.05 397.391L1109.18 395.404L1107.37 393.381L1105.62 391.338L1103.92 389.29L1102.27 387.252L1100.68 385.237L1099.14 383.261L1097.64 381.337L1096.19 379.478L1094.78 377.697L1093.4 376.005L1092.05 374.413L1090.72 372.932L1089.41 371.569L1088.1 370.333L1086.8 369.231L1085.49 368.267L1084.16 367.445L1082.82 366.769L1081.45 366.239L1080.04 365.855Z" fill="#4922D9" fill-opacity="0.5"/>
</g>
<g filter="url(#filter2_f_78_227)">
<path fill-rule="evenodd" clip-rule="evenodd" d="M936.021 508.664L934.625 508.875L933.198 509.147L931.736 509.476L930.238 509.86L928.702 510.294L927.127 510.774L925.513 511.296L923.859 511.856L922.164 512.447L920.428 513.065L918.651 513.706L916.834 514.362L914.978 515.031L913.083 515.705L911.15 516.38L909.182 517.051L907.179 517.713L905.144 518.361L903.078 518.989L900.984 519.593L898.866 520.166L896.726 520.703L894.568 521.199L892.398 521.646L890.218 522.04L888.035 522.374L885.853 522.643L883.679 522.841L881.518 522.963L879.375 523.004L877.258 522.96L875.172 522.826L873.124 522.6L871.118 522.279L869.16 521.86L867.257 521.343L865.414 520.727L863.636 520.01L861.927 519.192L860.293 518.275L858.738 517.26L857.266 516.147L855.881 514.939L854.586 513.638L853.384 512.247L852.277 510.769L851.268 509.208L850.359 507.569L849.549 505.855L848.84 504.071L848.231 502.223L847.723 500.316L847.312 498.355L846.999 496.346L846.78 494.295L846.652 492.207L846.613 490.091L846.657 487.95L846.78 485.791L846.978 483.622L847.244 481.446L847.572 479.271L847.957 477.102L848.39 474.944L848.866 472.803L849.376 470.683L849.912 468.59L850.467 466.526L851.032 464.497L851.599 462.506L852.16 460.555L852.707 458.648L853.231 456.786L853.724 454.972L854.178 453.205L854.586 451.487L854.94 449.819L855.233 448.2L855.458 446.628L855.61 445.104L855.682 443.626L855.669 442.19L855.567 440.796L855.372 439.44L855.08 438.119L854.688 436.83L854.196 435.568L853.6 434.331L852.902 433.114L852.1 431.912L851.197 430.722L850.193 429.539L849.091 428.358L847.894 427.175L846.606 425.985L845.232 424.785L843.775 423.57L842.241 422.336L840.637 421.079L838.969 419.795L837.244 418.482L835.469 417.137L833.65 415.756L831.796 414.337L829.914 412.879L828.011 411.379L826.096 409.837L824.177 408.25L822.262 406.62L820.36 404.944L818.481 403.223L816.632 401.459L814.823 399.651L813.063 397.801L811.36 395.911L809.723 393.982L808.159 392.018L806.677 390.02L805.284 387.993L803.988 385.939L802.794 383.861L801.71 381.765L800.741 379.653L799.891 377.531L799.167 375.403L798.572 373.273L798.11 371.146L797.782 369.027L797.593 366.921L797.543 364.832L797.633 362.766L797.865 360.727L798.237 358.719L798.749 356.748L799.399 354.818L800.185 352.931L801.104 351.094L802.154 349.308L803.33 347.577L804.627 345.905L806.04 344.293L807.565 342.744L809.194 341.259L810.922 339.84L812.741 338.488L814.645 337.204L816.624 335.986L818.673 334.835L820.782 333.749L822.944 332.727L825.149 331.767L827.39 330.867L829.657 330.023L831.943 329.232L834.238 328.49L836.534 327.793L838.823 327.136L841.097 326.514L843.348 325.921L845.57 325.353L847.753 324.803L849.893 324.264L851.983 323.731L854.017 323.196L855.989 322.654L857.896 322.098L859.732 321.52L861.496 320.915L863.182 320.276L864.791 319.597L866.319 318.871L867.767 318.093L869.133 317.258L870.419 316.36L871.625 315.395L872.753 314.359L873.806 313.249L874.787 312.061L875.698 310.792L876.545 309.442L877.332 308.009L878.064 306.493L878.746 304.895L879.384 303.214L879.985 301.453L880.555 299.614L881.099 297.7L881.626 295.715L882.141 293.663L882.651 291.548L883.162 289.375L883.681 287.15L884.213 284.879L884.765 282.567L885.342 280.22L885.949 277.845L886.591 275.45L887.272 273.04L887.998 270.623L888.771 268.205L889.595 265.793L890.473 263.394L891.406 261.014L892.398 258.659L893.449 256.335L894.56 254.047L895.732 251.801L896.966 249.603L898.263 247.458L899.621 245.372L901.041 243.349L902.522 241.395L904.063 239.514L905.663 237.711L907.32 235.989L909.032 234.353L910.798 232.806L912.616 231.351L914.482 229.99L916.394 228.726L918.35 227.56L920.346 226.494L922.38 225.53L924.448 224.668L926.547 223.909L928.674 223.252L930.826 222.697L932.999 222.245L935.19 221.893L937.395 221.642L939.613 221.49L941.838 221.435L944.07 221.475L946.303 221.609L948.536 221.834L950.766 222.147L952.989 222.548L955.204 223.032L957.408 223.597L959.598 224.24L961.772 224.959L963.929 225.749L966.066 226.609L968.181 227.534L970.273 228.523L972.34 229.57L974.382 230.675L976.395 231.832L978.381 233.04L980.337 234.294L982.262 235.592L984.156 236.931L986.019 238.308L987.849 239.72L989.647 241.164L991.412 242.638L993.144 244.139L994.842 245.664L996.507 247.212L998.138 248.779L999.736 250.365L1001.3 251.967L1002.83 253.584L1004.33 255.214L1005.8 256.855L1007.23 258.507L1008.63 260.169L1010 261.839L1011.33 263.517L1012.64 265.203L1013.91 266.895L1015.15 268.595L1016.35 270.3L1017.53 272.012L1018.67 273.73L1019.77 275.455L1020.85 277.185L1021.89 278.922L1022.9 280.665L1023.88 282.413L1024.82 284.166L1025.73 285.924L1026.6 287.685L1027.45 289.451L1028.26 291.219L1029.03 292.989L1029.78 294.76L1030.49 296.532L1031.17 298.302L1031.82 300.07L1032.44 301.833L1033.03 303.589L1033.59 305.336L1034.13 307.07L1034.65 308.79L1035.15 310.493L1035.64 312.176L1036.1 313.837L1036.56 315.473L1037.01 317.082L1037.45 318.663L1037.89 320.212L1038.34 321.729L1038.78 323.211L1039.24 324.658L1039.7 326.068L1040.18 327.441L1040.67 328.775L1041.18 330.071L1041.72 331.329L1042.27 332.549L1042.86 333.73L1043.47 334.875L1044.12 335.984L1044.79 337.059L1045.5 338.1L1046.25 339.11L1047.03 340.09L1047.84 341.043L1048.7 341.97L1049.59 342.875L1050.51 343.759L1051.47 344.625L1052.47 345.477L1053.5 346.316L1054.56 347.145L1055.66 347.968L1056.78 348.787L1057.93 349.604L1059.1 350.424L1060.29 351.248L1061.51 352.079L1062.73 352.919L1063.97 353.771L1065.22 354.638L1066.48 355.521L1067.74 356.422L1068.99 357.343L1070.25 358.286L1071.49 359.252L1072.72 360.242L1073.94 361.258L1075.13 362.3L1076.31 363.369L1077.45 364.466L1078.57 365.591L1079.66 366.743L1080.71 367.924L1081.72 369.131L1082.69 370.366L1083.62 371.627L1084.5 372.914L1085.33 374.226L1086.11 375.561L1086.84 376.919L1087.52 378.299L1088.14 379.698L1088.71 381.116L1089.22 382.55L1089.68 384L1090.07 385.464L1090.42 386.939L1090.7 388.425L1090.93 389.92L1091.11 391.421L1091.24 392.928L1091.31 394.438L1091.34 395.951L1091.32 397.464L1091.26 398.977L1091.16 400.488L1091.03 401.996L1090.85 403.501L1090.65 405.001L1090.41 406.496L1090.14 407.985L1089.84 409.467L1089.51 410.942L1089.14 412.409L1088.75 413.866L1088.32 415.315L1087.86 416.753L1087.36 418.179L1086.83 419.593L1086.26 420.994L1085.66 422.382L1085.03 423.754L1084.36 425.111L1083.66 426.451L1082.92 427.775L1082.16 429.081L1081.37 430.369L1080.55 431.639L1079.7 432.89L1078.83 434.123L1077.94 435.336L1077.03 436.53L1076.1 437.705L1075.15 438.861L1074.19 439.999L1073.22 441.118L1072.23 442.22L1071.24 443.305L1070.25 444.374L1069.25 445.427L1068.25 446.466L1067.25 447.491L1066.25 448.505L1065.26 449.508L1064.28 450.501L1063.31 451.486L1062.34 452.465L1061.4 453.439L1060.46 454.41L1059.55 455.38L1058.65 456.35L1057.77 457.323L1056.92 458.299L1056.08 459.281L1055.27 460.271L1054.48 461.27L1053.71 462.279L1052.96 463.301L1052.24 464.337L1051.54 465.389L1050.87 466.457L1050.21 467.543L1049.58 468.648L1048.96 469.772L1048.37 470.918L1047.79 472.084L1047.23 473.272L1046.68 474.482L1046.14 475.714L1045.61 476.967L1045.09 478.243L1044.58 479.539L1044.07 480.856L1043.57 482.193L1043.06 483.549L1042.55 484.923L1042.04 486.314L1041.52 487.721L1040.99 489.141L1040.45 490.575L1039.9 492.019L1039.33 493.474L1038.74 494.937L1038.14 496.406L1037.52 497.88L1036.88 499.357L1036.21 500.837L1035.52 502.316L1034.81 503.794L1034.08 505.27L1033.31 506.742L1032.52 508.209L1031.71 509.669L1030.87 511.121L1029.99 512.564L1029.09 513.994L1028.16 515.409L1027.2 516.806L1026.21 518.18L1025.18 519.529L1024.12 520.848L1023.02 522.133L1021.88 523.377L1020.71 524.577L1019.5 525.727L1018.25 526.822L1016.96 527.857L1015.63 528.83L1014.27 529.735L1012.87 530.569L1011.43 531.33L1009.96 532.014L1008.46 532.618L1006.93 533.142L1005.38 533.583L1003.79 533.94L1002.19 534.211L1000.57 534.398L998.928 534.499L997.275 534.514L995.61 534.445L993.938 534.293L992.26 534.059L990.58 533.746L988.901 533.356L987.225 532.891L985.556 532.356L983.895 531.753L982.246 531.087L980.61 530.362L978.991 529.583L977.389 528.755L975.807 527.883L974.247 526.972L972.708 526.03L971.194 525.06L969.703 524.07L968.238 523.066L966.798 522.053L965.382 521.039L963.992 520.028L962.625 519.028L961.282 518.044L959.961 517.083L958.66 516.15L957.378 515.25L956.113 514.389L954.863 513.571L953.626 512.802L952.398 512.085L951.178 511.424L949.962 510.823L948.748 510.285L947.532 509.812L946.312 509.406L945.084 509.069L943.845 508.801L942.593 508.605L941.324 508.479L940.034 508.423L938.723 508.436L937.386 508.517L936.021 508.664Z" fill="#4922D9" fill-opacity="0.5"/>
</g>
<g filter="url(#filter3_f_78_227)">
<path fill-rule="evenodd" clip-rule="evenodd" d="M978.901 736.854L977.051 735.787L975.222 734.7L973.415 733.593L971.629 732.467L969.866 731.323L968.124 730.161L966.404 728.983L964.705 727.787L963.029 726.576L961.374 725.348L959.742 724.105L958.131 722.847L956.542 721.575L954.975 720.288L953.43 718.986L951.907 717.67L950.407 716.341L948.929 714.998L947.474 713.641L946.041 712.27L944.631 710.886L943.245 709.489L941.881 708.079L940.541 706.656L939.225 705.219L937.933 703.77L936.666 702.308L935.423 700.834L934.204 699.347L933.011 697.847L931.844 696.335L930.702 694.811L929.586 693.276L928.496 691.728L927.434 690.17L926.398 688.6L925.389 687.019L924.408 685.428L923.454 683.826L922.529 682.215L921.631 680.594L920.762 678.964L919.921 677.326L919.108 675.68L918.324 674.026L917.568 672.366L916.841 670.698L916.143 669.025L915.473 667.346L914.832 665.662L914.22 663.974L913.637 662.281L913.082 660.585L912.556 658.885L912.059 657.183L911.59 655.479L911.15 653.773L910.738 652.066L910.355 650.359L910.001 648.651L909.674 646.943L909.376 645.237L909.106 643.532L908.864 641.828L908.649 640.127L908.462 638.429L908.302 636.733L908.17 635.042L908.064 633.355L907.985 631.672L907.932 629.995L907.905 628.323L907.903 626.657L907.926 624.998L907.974 623.346L908.046 621.702L908.14 620.065L908.257 618.436L908.396 616.816L908.555 615.205L908.735 613.604L908.934 612.012L909.151 610.429L909.386 608.857L909.637 607.295L909.905 605.743L910.186 604.202L910.482 602.671L910.79 601.151L911.111 599.64L911.442 598.141L911.784 596.651L912.135 595.171L912.494 593.701L912.861 592.241L913.235 590.789L913.615 589.347L914.001 587.913L914.391 586.487L914.786 585.069L915.185 583.658L915.587 582.254L915.992 580.857L916.4 579.465L916.81 578.079L917.222 576.698L917.637 575.322L918.054 573.949L918.474 572.58L918.896 571.215L919.321 569.852L919.748 568.492L920.18 567.133L920.615 565.777L921.055 564.423L921.5 563.07L921.951 561.718L922.408 560.368L922.873 559.019L923.347 557.672L923.829 556.326L924.321 554.982L924.825 553.64L925.34 552.3L925.867 550.962L926.408 549.628L926.964 548.297L927.534 546.97L928.121 545.647L928.724 544.33L929.345 543.018L929.985 541.712L930.643 540.414L931.321 539.123L932.02 537.841L932.739 536.569L933.48 535.306L934.243 534.055L935.028 532.817L935.836 531.591L936.667 530.379L937.521 529.181L938.399 528L939.3 526.835L940.225 525.688L941.174 524.56L942.147 523.451L943.143 522.362L944.163 521.296L945.207 520.251L946.274 519.23L947.364 518.233L948.477 517.262L949.612 516.317L950.769 515.398L951.948 514.508L953.147 513.647L954.368 512.814L955.608 512.013L956.867 511.242L958.144 510.502L959.439 509.794L960.751 509.12L962.079 508.478L963.422 507.869L964.779 507.294L966.149 506.753L967.532 506.246L968.925 505.773L970.329 505.334L971.741 504.93L973.162 504.559L974.589 504.222L976.023 503.919L977.461 503.649L978.903 503.411L980.348 503.206L981.795 503.033L983.242 502.89L984.689 502.778L986.135 502.696L987.579 502.643L989.02 502.618L990.458 502.62L991.891 502.649L993.319 502.703L994.741 502.782L996.156 502.884L997.564 503.01L998.965 503.157L1000.36 503.324L1001.74 503.512L1003.12 503.718L1004.48 503.943L1005.84 504.184L1007.19 504.441L1008.52 504.712L1009.85 504.998L1011.16 505.296L1012.47 505.606L1013.77 505.926L1015.05 506.256L1016.33 506.594L1017.59 506.94L1018.85 507.292L1020.09 507.65L1021.33 508.013L1022.56 508.379L1023.78 508.749L1024.99 509.12L1026.19 509.493L1027.39 509.867L1028.58 510.24L1029.76 510.613L1030.94 510.985L1032.12 511.355L1033.29 511.723L1034.45 512.089L1035.62 512.452L1036.78 512.812L1037.94 513.169L1039.09 513.523L1040.25 513.874L1041.41 514.221L1042.57 514.566L1043.73 514.908L1044.89 515.248L1046.06 515.587L1047.22 515.923L1048.39 516.259L1049.57 516.594L1050.75 516.93L1051.93 517.266L1053.12 517.604L1054.31 517.944L1055.51 518.287L1056.71 518.634L1057.91 518.986L1059.13 519.343L1060.34 519.706L1061.57 520.077L1062.8 520.455L1064.03 520.842L1065.27 521.239L1066.51 521.646L1067.75 522.065L1069 522.496L1070.26 522.939L1071.51 523.397L1072.77 523.868L1074.03 524.355L1075.29 524.858L1076.56 525.377L1077.82 525.912L1079.09 526.466L1080.35 527.037L1081.62 527.627L1082.88 528.236L1084.14 528.864L1085.4 529.511L1086.66 530.179L1087.91 530.867L1089.16 531.575L1090.41 532.304L1091.65 533.053L1092.89 533.823L1094.12 534.614L1095.35 535.426L1096.57 536.258L1097.78 537.112L1098.99 537.986L1100.19 538.882L1101.39 539.798L1102.57 540.736L1103.75 541.694L1104.93 542.673L1106.09 543.673L1107.25 544.694L1108.4 545.735L1109.53 546.798L1110.66 547.88L1111.78 548.984L1112.89 550.108L1113.99 551.253L1115.08 552.418L1116.16 553.604L1117.23 554.811L1118.29 556.037L1119.34 557.285L1120.37 558.552L1121.39 559.84L1122.4 561.148L1123.4 562.477L1124.38 563.825L1125.35 565.194L1126.31 566.583L1127.25 567.992L1128.17 569.421L1129.09 570.869L1129.98 572.337L1130.86 573.825L1131.73 575.333L1132.57 576.86L1133.41 578.406L1134.22 579.971L1135.02 581.555L1135.79 583.159L1136.55 584.781L1137.3 586.422L1138.02 588.081L1138.72 589.759L1139.4 591.455L1140.07 593.169L1140.71 594.901L1141.33 596.65L1141.93 598.417L1142.5 600.201L1143.05 602.002L1143.58 603.819L1144.09 605.653L1144.57 607.504L1145.03 609.37L1145.46 611.251L1145.86 613.148L1146.24 615.059L1146.59 616.985L1146.91 618.924L1147.21 620.878L1147.47 622.844L1147.71 624.823L1147.91 626.814L1148.09 628.817L1148.23 630.831L1148.35 632.856L1148.43 634.89L1148.47 636.934L1148.49 638.986L1148.47 641.047L1148.42 643.115L1148.33 645.19L1148.21 647.271L1148.05 649.358L1147.85 651.449L1147.62 653.543L1147.35 655.641L1147.05 657.741L1146.71 659.843L1146.33 661.945L1145.91 664.047L1145.45 666.148L1144.96 668.248L1144.42 670.344L1143.85 672.437L1143.23 674.526L1142.58 676.609L1141.89 678.685L1141.16 680.755L1140.39 682.817L1139.58 684.869L1138.73 686.912L1137.84 688.943L1136.91 690.963L1135.94 692.97L1134.93 694.963L1133.88 696.941L1132.8 698.904L1131.67 700.85L1130.5 702.779L1129.3 704.688L1128.06 706.578L1126.77 708.448L1125.45 710.295L1124.09 712.119L1122.7 713.919L1121.26 715.695L1119.79 717.443L1118.28 719.165L1116.74 720.857L1115.16 722.52L1113.54 724.152L1111.89 725.752L1110.2 727.319L1108.48 728.852L1106.73 730.349L1104.94 731.809L1103.12 733.232L1101.27 734.616L1099.38 735.961L1097.47 737.264L1095.53 738.525L1093.56 739.744L1091.56 740.919L1089.53 742.049L1087.48 743.133L1085.41 744.17L1083.31 745.161L1081.19 746.103L1079.05 746.997L1076.88 747.841L1074.7 748.635L1072.51 749.379L1070.29 750.072L1068.06 750.714L1065.82 751.304L1063.56 751.842L1061.3 752.328L1059.02 752.762L1056.74 753.144L1054.45 753.473L1052.15 753.75L1049.85 753.976L1047.55 754.15L1045.24 754.273L1042.94 754.344L1040.63 754.366L1038.33 754.337L1036.03 754.259L1033.74 754.133L1031.45 753.959L1029.17 753.737L1026.9 753.469L1024.64 753.156L1022.39 752.798L1020.15 752.396L1017.92 751.952L1015.71 751.466L1013.51 750.939L1011.32 750.373L1009.15 749.768L1007 749.126L1004.87 748.447L1002.75 747.734L1000.65 746.987L998.574 746.207L996.514 745.395L994.474 744.553L992.454 743.681L990.455 742.782L988.476 741.855L986.518 740.903L984.582 739.925L982.667 738.924L980.773 737.9L978.901 736.854Z" fill="#4922D9" fill-opacity="0.5"/>
</g>
<g filter="url(#filter4_b_78_227)">
<path d="M0 0H1280V832H0V0Z" fill="white" fill-opacity="0.25"/>
</g>
<defs>
<filter id="filter0_f_78_227" x="288.182" y="175.217" width="867.683" height="867.404" filterUnits="userSpaceOnUse" color-interpolation-filters="sRGB">
<feFlood flood-opacity="0" result="BackgroundImageFix"/>
<feBlend mode="normal" in="SourceGraphic" in2="BackgroundImageFix" result="shape"/>
<feGaussianBlur stdDeviation="117.7" result="effect1_foregroundBlur_78_227"/>
</filter>
<filter id="filter1_f_78_227" x="723.35" y="-88.6599" width="779.391" height="738.072" filterUnits="userSpaceOnUse" color-interpolation-filters="sRGB">
<feFlood flood-opacity="0" result="BackgroundImageFix"/>
<feBlend mode="normal" in="SourceGraphic" in2="BackgroundImageFix" result="shape"/>
<feGaussianBlur stdDeviation="117.7" result="effect1_foregroundBlur_78_227"/>
</filter>
<filter id="filter2_f_78_227" x="562.143" y="-13.9653" width="764.598" height="783.879" filterUnits="userSpaceOnUse" color-interpolation-filters="sRGB">
<feFlood flood-opacity="0" result="BackgroundImageFix"/>
<feBlend mode="normal" in="SourceGraphic" in2="BackgroundImageFix" result="shape"/>
<feGaussianBlur stdDeviation="117.7" result="effect1_foregroundBlur_78_227"/>
</filter>
<filter id="filter3_f_78_227" x="672.503" y="267.218" width="711.386" height="722.548" filterUnits="userSpaceOnUse" color-interpolation-filters="sRGB">
<feFlood flood-opacity="0" result="BackgroundImageFix"/>
<feBlend mode="normal" in="SourceGraphic" in2="BackgroundImageFix" result="shape"/>
<feGaussianBlur stdDeviation="117.7" result="effect1_foregroundBlur_78_227"/>
</filter>
<filter id="filter4_b_78_227" x="-7.9" y="-7.9" width="1295.8" height="847.8" filterUnits="userSpaceOnUse" color-interpolation-filters="sRGB">
<feFlood flood-opacity="0" result="BackgroundImageFix"/>
<feGaussianBlur in="BackgroundImageFix" stdDeviation="3.95"/>
<feComposite in2="SourceAlpha" operator="in" result="effect1_backgroundBlur_78_227"/>
<feBlend mode="normal" in="SourceGraphic" in2="effect1_backgroundBlur_78_227" result="shape"/>
</filter>
</defs>
</svg>
